<?xml version="1.0" encoding="utf-8"?>
<!-- Generator: Adobe Illustrator 27.5.0, SVG Export Plug-In . SVG Version: 6.00 Build 0)  -->
<svg version="1.1" xmlns="http://www.w3.org/2000/svg" xmlns:xlink="http://www.w3.org/1999/xlink" x="0px" y="0px"
	 viewBox="0 0 500 500" style="enable-background:new 0 0 500 500;" xml:space="preserve">
<g id="BACKGROUND">
	<rect style="fill:#FFFFFF;" width="500" height="500"/>
</g>
<g id="OBJECTS">
	<g>
		<g>
			<path style="fill:#F3E8E2;" d="M316.481,223.19c39.56-3.37,75.84-17.82,95.68-41s23.31-55.72,13.2-83.54
				c-10.23-28.15-33.75-52.17-63.49-64.84c-29.74-12.67-65.28-13.8-95.94-3.06c-38.34,13.43-67.16,43.57-105.44,57.13
				c-35.8,12.68-59.43,30.34-68.32,47.82c-19.56,38.47-3.88,70.97,39,82.25C175.221,229.53,241.171,229.61,316.481,223.19z"/>
			<path style="fill:#F3E8E2;" d="M119.961,80.18c23.41,20.98,79.25-15.21,87.57-25.02c4.6-5.43,9.98-12.16,7.02-18.6
				c-2.89-6.3-11.55-7.69-18.44-6.26c-15.41,3.21-27.29,15.53-42.35,20.06c-8.42,2.53-17.3,3.23-25.73,5.76
				C115.641,59.84,111.361,72.48,119.961,80.18z"/>
		</g>
		<g>
			<ellipse style="fill:#DBD1CC;" cx="127.151" cy="197.51" rx="43.3" ry="4.38"/>
			<g>
				<ellipse style="fill:#DBD1CC;" cx="285.381" cy="197.1" rx="133.4" ry="4.79"/>
				<ellipse style="fill:#DBD1CC;" cx="209.381" cy="209.3" rx="77.6" ry="7.41"/>
			</g>
		</g>
		<g>
			<g>
				<g>
					<path style="fill:#FDBF64;" d="M108.421,165.26l4.25,28.84l0.44,2.96c7.23,2.84,13.74,2.76,22.69,0.4l0.46-3.07l4.42-29.12
						L108.421,165.26z"/>
					<path style="fill:#FFD99C;" d="M138.731,165.82c0,0-1.68,2.45-22.04,2.45l1.99,29.17l-3.69-1.17l-4.1-31.02L138.731,165.82z"/>
					<ellipse style="fill:#A65F2D;" cx="124.551" cy="165.26" rx="16.13" ry="1.8"/>
					<path style="fill:#0B3A51;" d="M112.671,194.1l0.44,2.96c7.23,2.84,13.74,2.76,22.69,0.4l0.46-3.07
						c-2.1,0.68-6.15,1.68-11.68,1.68C119.341,196.07,115.101,194.94,112.671,194.1z"/>
				</g>
				<g>
					<g>
						<path style="fill:#3E9A98;" d="M61.131,115.86c10.03,6.89,17.27,16.99,24.99,26.39c4.37,5.32,9.46,10.79,15.4,15.03
							c4.55,3.25,9.61,5.76,15.23,6.89c2.46-10.56-1.87-22.98-9.38-30.78c-0.01-0.01-0.03-0.03-0.03-0.03
							c-5.71-5.9-13.45-9.45-21.29-11.85C78.171,119.1,70.021,117.7,61.131,115.86z"/>
						<path style="fill:none;stroke:#293044;stroke-linecap:round;stroke-miterlimit:10;" d="M117.441,166.28
							c-10.95-25.94-25.09-34.82-38.19-40.95"/>
						<path style="fill:#56BAB2;" d="M61.131,115.86c10.03,6.89,17.27,16.99,24.99,26.39c4.37,5.32,9.46,10.79,15.4,15.03
							c-0.5-0.72-0.96-1.47-1.4-2.22c-1.76-3.04-3.36-6.35-6.16-8.48c-1.75-1.33-3.96-2.21-5.15-4.05c-1.33-2.04-1.1-4.84-2.57-6.77
							c-1.73-2.26-5.13-2.53-7.14-4.54c-1.76-1.77-2.14-4.6-3.93-6.36c-1.16-1.15-2.76-1.69-4.19-2.48
							c-1.43-0.78-2.82-2.05-2.9-3.68c1.55,1.94,4.15,2.66,6.62,2.91c2.46,0.25,4.99,0.15,7.35,0.87c2.71,0.83,5.02,2.7,7.77,3.42
							c1.87,0.49,3.87,0.41,5.68,1.11c2.49,0.95,4.25,3.21,6.57,4.52c1.63,0.92,3.47,1.33,5.28,1.84
							c-5.71-5.9-13.45-9.45-21.29-11.85C78.171,119.1,70.021,117.7,61.131,115.86z"/>
					</g>
					<g>
						<path style="fill:#3E9A98;" d="M129.811,161.84c6.14-3.2,10.56-8.42,14.02-14.46c3.84-6.69,6.5-14.38,9.04-21.41
							c4.82-13.37,8.78-27.33,16.91-38.99c-9.82,7.25-20.45,13.04-28.82,21.52c-3.63,3.69-6.79,7.78-9.29,12.17
							C124.521,133.19,122.591,148,129.811,161.84z"/>
						<path style="fill:none;stroke:#293044;stroke-linecap:round;stroke-miterlimit:10;" d="M129.511,166.45
							c0.85-18.62,7.49-36.13,18.31-52.36"/>
						<path style="fill:#56BAB2;" d="M131.671,120.67c0.54-0.43,1.12-0.81,1.73-1.12c2-1.03,4.57-1.72,5.3-3.83
							c0.43-1.26,0.07-2.77,0.82-3.87c0.91-1.35,2.89-1.31,4.37-2.02c1.65-0.8,2.6-2.52,3.75-3.94c1.43-1.75,3.26-3.11,5.08-4.45
							c3.06-2.27,6.12-4.53,9.18-6.79c-1.2,1.03-1.91,2.78-2.17,4.39c-0.26,1.62-0.24,3.31-0.96,4.78c-0.89,1.81-2.8,2.97-3.72,4.76
							c-1.76,3.35,0.34,7.83-1.59,11.08c-1.36,2.29-4.4,3.31-5.42,5.78c-1.01,2.45,0.39,5.22,0.21,7.87
							c-0.19,2.77-2.09,5.1-3.07,7.7c-0.78,2.03-0.98,4.22-1.35,6.38c3.84-6.69,6.5-14.38,9.04-21.41
							c4.82-13.37,8.78-27.33,16.91-38.99c-9.82,7.25-20.45,13.04-28.82,21.52C137.341,112.19,134.181,116.28,131.671,120.67z"/>
					</g>
					<g>
						<path style="fill:#84D1C7;" d="M88.271,70.66c4.76,9.4,7.05,19.84,8.98,30.2c1.92,10.37,3.53,20.86,7.08,30.78
							c1.83,5.14,4.55,10.67,8,15.76c3.23,4.74,7.1,9.09,11.5,12.33c5.21-7.93,6.72-18.88,6.15-28.87c-0.13-2.17-0.36-4.3-0.66-6.34
							c-1.73-11.42-6.99-22.14-14.06-31.28C108.181,84.1,99.361,76.44,88.271,70.66z"/>
						<path style="fill:none;stroke:#293044;stroke-linecap:round;stroke-miterlimit:10;" d="M124.061,166.25
							c0-27.67-6.96-53.96-21.03-77.31"/>
						<path style="fill:#A1E3D6;" d="M88.271,70.66c4.76,9.4,7.05,19.84,8.98,30.2c1.92,10.37,3.53,20.86,7.08,30.78
							c1.83,5.14,4.55,10.67,8,15.76c-2.72-6.83-5.22-13.78-6.13-21.06c-0.45-3.62-0.53-7.38-2.04-10.69
							c-1.03-2.27-2.71-4.32-2.93-6.79c-0.21-2.43,1.06-4.81,0.85-7.24c-0.26-2.94-2.6-5.24-3.57-8.01
							c-1.01-2.89-0.5-6.07-0.68-9.12c-0.17-3.06-1.48-6.5-4.66-7.1c1.69-1.46,4.37-0.14,5.72,1.63c1.35,1.77,2.19,4.03,4.07,5.22
							c1.56,0.99,3.66,1.11,4.94,2.45c1.54,1.63,1.19,4.3,2.28,6.26c1.64,2.95,6.02,3.49,7.62,6.46c1.25,2.31,0.37,5.32,1.6,7.65
							c1.16,2.21,3.88,3.17,5.34,5.2c1.44,2.01,1.41,4.66,1.75,7.11c0.56,3.98,2.2,7.69,3.51,11.49c-0.13-2.17-0.36-4.3-0.66-6.34
							c-1.73-11.42-6.99-22.14-14.06-31.28C108.181,84.1,99.361,76.44,88.271,70.66z"/>
					</g>
				</g>
			</g>
			<g>
				<g>
					<g>
						<g>
							<g>
								<rect x="296.621" y="123.2" style="fill:#0B3A51;" width="7.85" height="76.73"/>
								<rect x="296.621" y="123.2" style="fill:#1B5A6E;" width="4.09" height="76.73"/>
							</g>
							<g>
								<rect x="336.721" y="126.47" style="fill:#0B3A51;" width="7.85" height="68.01"/>
								<rect x="336.721" y="126.47" style="fill:#1B5A6E;" width="4.09" height="68.01"/>
							</g>
						</g>
						<g>
							<g>
								<rect x="169.641" y="146.74" style="fill:#0B3A51;" width="7.85" height="53.19"/>
								<rect x="169.641" y="146.74" style="fill:#1B5A6E;" width="4.09" height="53.19"/>
							</g>
							<g>
								<rect x="209.751" y="126.47" style="fill:#0B3A51;" width="7.85" height="68.01"/>
								<rect x="209.751" y="126.47" style="fill:#1B5A6E;" width="4.09" height="68.01"/>
							</g>
						</g>
					</g>
					<g>
						<polygon style="fill:#8F2434;" points="351.531,118.98 351.531,124.76 301.941,156.11 163.191,155.33 163.191,149.5 						"/>
						<polygon style="fill:#B73337;" points="163.191,149.5 212.241,118.98 351.531,118.98 301.611,149.5 						"/>
					</g>
				</g>
				<g>
					<g>
						<g>
							<path style="fill:#1B1940;" d="M250.031,119.37V72.72c0-2.65,2.14-4.79,4.79-4.79h68.89c2.65,0,4.79,2.14,4.79,4.79v46.65
								H250.031z"/>
							<rect x="254.941" y="72.09" style="fill:#FBFAFF;" width="68.66" height="43.12"/>
						</g>
						<g>
							<g>
								<path style="fill:#1B1940;" d="M328.511,119.37v0.3c0,0.91-0.24,2.41-0.99,2.92l-27.37,18.44
									c-0.47,0.32-1.25,0.49-1.82,0.49l-77.03-0.77c-0.5,0-0.91-0.85-0.91-1.35v-0.85L328.511,119.37z"/>
								<path style="fill:#E4E1F7;" d="M220.381,138.55l29.65-19.18h78.47l-28.03,18.14c-1.06,0.68-2.29,1.05-3.54,1.05h-76.55
									V138.55z"/>
							</g>
							<g>
								<polygon style="fill:#FFFFFF;" points="273.411,136.78 280.471,131.52 260.391,131.55 252.791,136.68 								"/>
								<g>
									<polygon style="fill:#1B1940;" points="252.201,120.91 320.661,120.91 304.381,130.44 238.781,130.44 									"/>
									<g>
										<g>
											
												<line style="fill:none;stroke:#E4E1F7;stroke-width:0.5;stroke-miterlimit:10;" x1="250.451" y1="121.82" x2="320.031" y2="121.97"/>
											
												<line style="fill:none;stroke:#E4E1F7;stroke-width:0.5;stroke-miterlimit:10;" x1="247.391" y1="123.57" x2="316.971" y2="123.71"/>
											
												<line style="fill:none;stroke:#E4E1F7;stroke-width:0.5;stroke-miterlimit:10;" x1="243.911" y1="125.6" x2="313.491" y2="125.75"/>
											
												<line style="fill:none;stroke:#E4E1F7;stroke-width:0.5;stroke-miterlimit:10;" x1="241.291" y1="127.71" x2="310.871" y2="127.85"/>
										</g>
										<g>
											
												<line style="fill:none;stroke:#E4E1F7;stroke-width:0.5;stroke-miterlimit:10;" x1="312.591" y1="120.24" x2="296.671" y2="130.92"/>
											
												<line style="fill:none;stroke:#E4E1F7;stroke-width:0.5;stroke-miterlimit:10;" x1="303.651" y1="120.24" x2="287.951" y2="131.09"/>
											
												<line style="fill:none;stroke:#E4E1F7;stroke-width:0.5;stroke-miterlimit:10;" x1="294.621" y1="120.41" x2="278.701" y2="131.09"/>
											
												<line style="fill:none;stroke:#E4E1F7;stroke-width:0.5;stroke-miterlimit:10;" x1="285.771" y1="120.41" x2="274.451" y2="127.85"/>
											
												<line style="fill:none;stroke:#E4E1F7;stroke-width:0.5;stroke-miterlimit:10;" x1="277.861" y1="120.24" x2="266.081" y2="127.71"/>
											
												<line style="fill:none;stroke:#E4E1F7;stroke-width:0.5;stroke-miterlimit:10;" x1="270.301" y1="120.41" x2="256.551" y2="131.09"/>
											
												<line style="fill:none;stroke:#E4E1F7;stroke-width:0.5;stroke-miterlimit:10;" x1="263.971" y1="120.24" x2="249.141" y2="130.92"/>
											
												<line style="fill:none;stroke:#E4E1F7;stroke-width:0.5;stroke-miterlimit:10;" x1="258.231" y1="120.24" x2="242.101" y2="131.52"/>
										</g>
									</g>
								</g>
							</g>
						</g>
					</g>
					<g>
						<g>
							<rect x="271.671" y="77.33" style="fill:#805994;" width="45.93" height="34.15"/>
							<g>
								<g>
									<defs>
										<rect id="SVGID_1_" x="271.671" y="77.33" width="45.93" height="34.15"/>
									</defs>
									<clipPath id="SVGID_00000018950918182207703430000004338747576214422178_">
										<use xlink:href="#SVGID_1_"  style="overflow:visible;"/>
									</clipPath>
									<g style="clip-path:url(#SVGID_00000018950918182207703430000004338747576214422178_);">
										<g>
											<g>
												<path style="fill:#F5A68C;" d="M290.271,90c0.02-0.24-0.21-0.45-0.46-0.5s-0.5,0.02-0.73,0.11
													c-0.55,0.2-1.07,0.47-1.72,1.33c0.68-2.25,1.29-4.52,1.84-6.8c0.06-0.26,0.1-0.57-0.1-0.75
													c-0.19-0.16-0.49-0.09-0.67,0.07c-0.18,0.17-0.26,0.41-0.33,0.64c-0.34,1.07-0.69,2.14-1.21,3.41
													c-0.22-1.31-0.45-2.63-0.67-3.94c-0.03-0.19-0.07-0.39-0.18-0.55c-0.11-0.16-0.32-0.27-0.51-0.21
													c-0.28,0.09-0.32,0.44-0.32,0.73c0.02,1.16,0.04,2.31,0.12,3.75c-0.42-1.01-0.84-2.03-1.25-3.04
													c-0.12-0.29-0.32-0.63-0.64-0.6c-0.21,0.02-0.36,0.21-0.41,0.41c-0.04,0.2,0,0.41,0.05,0.6
													c0.23,1.02,0.45,2.05,0.68,3.24c-0.48-0.81-1.04-1.59-1.67-2.3c-0.12-0.14-0.27-0.29-0.46-0.28
													c-0.2,0.01-0.34,0.2-0.37,0.39c-0.02,0.19,0.04,0.38,0.11,0.56c0.32,0.86,0.63,1.72,1.05,2.62
													c-0.75,1.54-0.39,3.53,0.87,4.71c0.8,0.32,1.74,0.3,2.51-0.07c0.26-0.12,0.46-0.3,0.64-0.51
													c1.14-0.83,2.29-1.65,3.43-2.48C290.051,90.39,290.251,90.23,290.271,90z"/>
												<path style="fill:#F5A68C;" d="M292.091,95.66c-3.76,2.3-7.27,5.44-9.99,8.85c-0.63,0.79-1.25,1.65-1.41,2.65
													c-0.16,0.99,0.27,2.15,1.23,2.54c1.14,0.46,2.37-0.31,3.34-1.04c1.85-1.39,3.7-2.78,5.55-4.17
													c0.6-0.45,1.22-0.92,1.61-1.55C293.581,101.05,292.511,98.39,292.091,95.66z"/>
												<path style="fill:#F5A68C;" d="M282.901,91.6c-0.79,4.47-1.59,8.94-2.38,13.41c-0.13,0.76-0.27,1.53-0.18,2.29
													c0.09,0.76,0.45,1.53,1.1,1.96c1.22,0.79,2.99,0.04,3.74-1.19s0.77-2.74,0.77-4.17c0-3.92-0.01-7.84-0.01-11.76
													C284.811,91.99,283.691,91.83,282.901,91.6z"/>
											</g>
											<path style="fill:#F5A68C;" d="M308.641,118.98c-0.58-6.25-1.78-12.55-3.42-18.62c-1.04,0.75-1.76,1.75-2.31,2.69
												c-0.69,0.79-1.38,1.58-2.07,2.37c1.51,4.46,2.87,8.96,3.94,13.41C306.001,118.96,307.241,118.94,308.641,118.98z"/>
											<g>
												<path style="fill:#F5A68C;" d="M305.231,100.32c-0.42,2.08-0.73,3.6-1.06,5.11c-0.6,2.74-1.27,5.48-2.78,11.65
													l-11.53-1.18c-0.72-2.78-1.7-5.88-1.98-8.73c0.16-3.75,1.67-7.1,3.48-10.25v-0.01c0.24-0.42,0.49-0.83,0.74-1.25
													c0.13,0.04,0.28,0.08,0.42,0.13c0.55,0.18,1.14,0.4,1.65,0.63c0.35,0.16,0.65,0.33,0.9,0.49
													c0.21-0.42,0.4-0.83,0.57-1.23c0.55-1.3,0.91-2.54,1.15-3.78c0.03-0.11,0.05-0.21,0.07-0.33
													c0.47,0.13,0.94,0.25,1.43,0.34c1.19,0.25,2.41,0.39,3.67,0.42c-0.22,0.62-0.35,1.32-0.42,2.05
													c-0.11,1.34,0.01,2.79,0.36,4.1c0.17,0.12,0.39,0.27,0.65,0.42c0.5,0.31,1.16,0.67,1.91,1.03c0,0,0,0,0,0.01
													C304.681,100.07,304.951,100.2,305.231,100.32z"/>
												<path style="fill:#CF6C5B;" d="M301.931,92.34c-0.22,0.62-0.35,1.32-0.42,2.05c-1.8,0.92-3.86,1.38-5.9,1.29
													c0.55-1.3,0.91-2.54,1.15-3.78c0.5,0,1,0.01,1.5,0.01C299.451,92.17,300.681,92.31,301.931,92.34z"/>
												<path style="fill:#FFE6B8;" d="M304.391,100.1c0.02-0.05,0.03-0.1,0.04-0.15c0-0.01,0-0.01,0-0.01
													c-0.75-0.36-1.41-0.72-1.91-1.03c-0.76,0.97-1.1,2.35-1.94,3.31c-1.02,1.2-2.82,1.66-4.35,1.18
													c-1.53-0.48-2.7-1.84-2.98-3.39c-0.24-1.25,0.12-2.57,0.89-3.6c-0.52-0.23-1.1-0.45-1.65-0.63
													c-0.41,0.35-0.79,0.72-1.16,1.12v0.01c-1.81,3.15-3.32,6.5-3.48,10.25c0.29,2.85,1.26,5.95,1.98,8.73l11.53,1.18
													c0.69-2.83,1.15-4.22,1.56-5.94C302.231,107.66,302.141,102.56,304.391,100.1z"/>
											</g>
										</g>
										<g>
											<path style="fill:#6E1A40;" d="M302.481,78.89c0.34-1.52,1.51-2.87,3.03-3.34c1.52-0.47,3.34,0,4.33,1.23
												c0.99,1.23,1.02,3.14-0.03,4.31c-1.11,1.25-3,1.46-4.79,1.55C303.941,81.57,303.081,80.29,302.481,78.89z"/>
											<path style="fill:#F5A68C;" d="M293.571,85.05c0.99-4.27,4.71-7.07,8.31-6.26c3.59,0.81,5.7,4.93,4.71,9.19
												c-0.99,4.27-5.66,6.75-9.26,5.94C293.741,93.11,292.581,89.32,293.571,85.05z"/>
											<path style="fill:#852644;" d="M302.911,93.86c0.92-2.24,1.44-4.65,1.52-7.07c-1.23-0.57-2.27-1.49-2.94-2.62
												c-0.67-1.13-0.98-2.46-0.82-3.72c-1.89,1.35-3.94,2.51-6.17,3.56c-1.11,2.66-1.51,5.6-1.04,8.55
												c-1.26-3.01-1.89-6.4-0.92-9.5c0.97-3.1,3.82-5.76,7.14-5.82c0.66-0.01,1.4,0.12,1.74,0.6c2.03-0.35,3.99,1.01,5.24,2.62
												c1.69,2.19,2.55,5.06,1.95,7.72C308.001,90.87,305.821,93.22,302.911,93.86z"/>
											<g>
												<path style="fill:#434B54;" d="M295.372,86.853c0.034-0.407,0.281-0.719,0.55-0.696c0.27,0.023,0.46,0.371,0.426,0.779
													c-0.034,0.407-0.281,0.719-0.551,0.696C295.528,87.609,295.337,87.26,295.372,86.853z"/>
												<path style="fill:#434B54;" d="M300.766,87.786c0.034-0.407,0.281-0.719,0.551-0.696c0.27,0.023,0.46,0.371,0.426,0.779
													c-0.034,0.407-0.281,0.719-0.551,0.696C300.922,88.542,300.731,88.193,300.766,87.786z"/>
												<path style="fill:#852644;" d="M295.001,84.39c0.3-0.36,0.82-0.53,1.28-0.42c0.46,0.12,0.83,0.52,0.91,0.98
													C296.581,84.45,295.721,84.24,295.001,84.39z"/>
												<path style="fill:#852644;" d="M300.721,85.26c0.35-0.33,0.9-0.45,1.36-0.28c0.46,0.17,0.8,0.61,0.84,1.09
													C302.411,85.39,301.441,85.09,300.721,85.26z"/>
												<path style="fill:#C75052;" d="M297.691,86.97c-0.3,0.75-0.48,1.55-0.53,2.36
													C296.701,88.72,296.841,87.76,297.691,86.97z"/>
												<path style="fill:#C75052;" d="M296.901,90.18c0.99,0.16,2,0.18,3,0.04c0.06,0.51-0.19,1.04-0.63,1.33
													c-0.44,0.28-1.04,0.31-1.5,0.06C297.301,91.36,297.001,90.84,296.901,90.18z"/>
											</g>
										</g>
									</g>
								</g>
							</g>
						</g>
						<g>
							<rect x="271.671" y="74.49" style="fill:#DED8ED;" width="45.93" height="2.83"/>
							<g>
								<circle style="fill:#E83C4E;" cx="315.621" cy="76.08" r="0.71"/>
								<circle style="fill:#E8BA3C;" cx="313.001" cy="76.08" r="0.71"/>
								<circle style="fill:#61B891;" cx="310.171" cy="76.08" r="0.71"/>
							</g>
						</g>
					</g>
				</g>
			</g>
			<g>
				<g>
					<path style="fill:#DE6952;" d="M169.151,118.9c-13.91,12-33.56,36.8-34.73,45.72c-1.1,8.39,11.58,20.98,20.67,25.2
						c2.72,2.25-0.43,2.57,4.04,3.31c2.68-8.65-11.95-16.98-8.04-23.44c6.52-10.77,14.97-19.55,26.1-29.85
						C175.111,133.25,172.511,125.91,169.151,118.9z"/>
					<path style="fill:#ADA8A8;" d="M168.491,117.96c-12.38,6.47-22.51,17.13-28.37,30.4c4.57,6.45,11.39,11.27,19.6,13.94
						c6-8.5,12.03-17.07,16.38-26.52c1.28-2.79,2.43-5.83,1.89-8.85C177.231,122.64,173.331,119.69,168.491,117.96z"/>
				</g>
				<g>
					<path style="fill:#F8906B;" d="M263.321,116.09c-0.16-4.6-0.32-9.21-0.2-14.45c0.17-3.49,0.68-6.95,1.53-10.32
						c0.13-0.51,0.28-1.05,0.62-1.42c0.34-0.37,0.93-0.51,1.29-0.15c0.35,0.35,0.31,0.96,0.25,1.48c-0.36,2.97-0.73,5.93-0.83,9.1
						c1.33-3.46,2.8-6.85,4.39-10.17c0.25-0.52,0.57-1.09,1.09-1.17c0.56-0.09,1.06,0.51,1.16,1.14c0.1,0.63-0.09,1.26-0.28,1.86
						c-0.83,2.66-1.65,5.32-2.29,8.28c0.94-2.61,2.27-5.05,3.92-7.17c0.34-0.44,0.86-0.91,1.33-0.66c0.28,0.15,0.42,0.52,0.42,0.87
						c0,0.35-0.12,0.68-0.23,1c-0.89,2.52-1.77,5.04-2.5,7.67c0.78-2.18,1.73-4.28,2.83-6.28c0.19-0.34,0.39-0.69,0.68-0.93
						c0.29-0.24,0.69-0.35,1.01-0.17s0.5,0.6,0.51,1c0.01,0.4-0.11,0.8-0.23,1.18c-0.88,2.76-1.87,5.48-3.17,8.04
						c2.03,7.42-2.72,15.11-2.72,15.11S266.191,117.46,263.321,116.09z"/>
					<g>
						<path style="fill:#F8906B;" d="M272.451,118.6c-5.08,12.85-15.62,34.3-24.3,37.27c-2.63,0.9-5.92,0.59-9.64-0.62
							c-1.75-0.57-3.6-1.33-5.53-2.26c-2.68-1.28-5.5-2.89-8.41-4.73c-4.75-2.99-9.73-6.6-14.67-10.41
							c3.21-6.85,2.22-18.96,8.69-24.35c2.13-0.13,14.95,16.17,22.33,21.92c0.31,0.25,0.62,0.48,0.91,0.68
							c0.33,0.24,0.65,0.44,0.95,0.61c0.83,0.49,1.53,0.74,2.08,0.71c4.22-0.26,15.03-14.86,19.24-23.8
							C266.991,114.58,269.711,116.06,272.451,118.6z"/>
						<path style="fill:#DE6952;" d="M243.271,146.42c-0.65,3.34-2.28,6.52-4.76,8.82c-1.75-0.57-3.6-1.33-5.53-2.26
							c-2.68-1.28-5.5-2.89-8.41-4.73c0.43-0.65,0.99-1.23,1.55-1.74c4.33-4.01,8.98-7.68,14.8-11.1c0.31,0.25,0.62,0.48,0.91,0.68
							c0.33,0.24,0.65,0.44,0.95,0.61C243.631,139.87,243.891,143.2,243.271,146.42z"/>
					</g>
				</g>
				<g>
					<g>
						<path style="fill:#F8906B;" d="M213.801,107.08c-2.53,2.33-8.06,1.31-12.79,0.24c-7.28-1.66-16.44-3.67-18.15-12.55
							c-0.91-4.76-1.83-9.57-1.4-14.39c0.42-4.81,2.34-9.7,6.27-12.91c4.83-3.93,12.22-4.69,18.19-2.42c4.3,1.64,7.4,2.52,9.34,5.06
							c0.75,0.99,1.32,2.21,1.72,3.83c0.33,1.36,0.61,2.73,0.82,4.09C219.921,91.3,216.721,104.4,213.801,107.08z"/>
						<path style="fill:#DE6952;" d="M217.791,78.02c-0.84,0.31-1.82,0.22-2.56-0.29c-0.71,3.69-2.03,7.05-4.03,9.97
							c-2.21-3.67-3.32-5.48-4.09-7.45s-1.17-4.12-0.81-6.21c0.3-1.72,1.19-3.4,2.69-4.29c1.41-0.85,3.23-0.86,4.79-0.33
							c0.51,0.17,1.01,0.41,1.48,0.69c0.75,0.99,1.32,2.21,1.72,3.83C217.301,75.29,217.581,76.66,217.791,78.02z"/>
						<path style="fill:#F8906B;" d="M207.901,102.14c-2.89,6.82-3.67,9.78-5.02,14.89c-7.07-1.09-14.29-1.21-21.39-0.34
							c3.11-4.75,5.92-8.21,8.5-15.63C194.541,101.02,198.691,100.8,207.901,102.14z"/>
					</g>
					<g>
						<path style="fill:#5C1012;" d="M224.091,69.85c0.39,1.58-0.29,3.3-1.46,4.43c-0.41,0.4-0.88,0.73-1.39,1
							c-0.92,0.5-1.96,0.79-3.01,0.93c-1.61,0.23-3.25,0.1-4.65,0.1c1.4,4.47-0.37,9.29-2.42,13.51s-4.46,8.54-4.4,13.23
							c0.01,0.65,0.07,1.33-0.1,1.97c-0.17,0.64-0.63,1.26-1.27,1.39c-0.65,0.13-1.4-0.44-1.53-1.19c-0.77,0.92-1.54,1.85-2.53,2.54
							c-0.99,0.68-2.22,1.1-3.4,0.86c-1.17-0.24-2.23-1.25-1.91-2.28c-1.92,1.4-4.11,2.42-6.42,2.98c-0.64,0.16-1.33,0.28-1.94,0.03
							c-1.09-0.42-1.49-1.8-1.24-2.77c-0.52,0.59-1.07,1.21-1.81,1.51c-0.73,0.29-1.71,0.15-2.12-0.53
							c-0.36-0.61-0.16-1.39-0.01-2.08c0.51-2.3,0.32-4.76-0.22-6.97c-3.09-5.94-4.64-12.66-4.48-19.35
							c0.06-2.31,0.33-4.67,1.12-6.83c0.29-0.79,0.65-1.56,1.09-2.29c1.66-2.69,4.66-4.73,8.4-4.61c0.51-4.04,4.68-6.77,8.73-7.16
							c4.05-0.38,8.03,0.99,11.93,2.16c3.9,1.17,8.08,2.14,11.98,0.99c0.68-0.2,1.39-0.46,2.07-0.3c1.43,0.36,1.76,2.42,0.93,3.63
							s-2.31,1.75-3.24,2.19C222.341,67.12,223.721,68.34,224.091,69.85z"/>
						<path style="fill:#8A352D;" d="M224.091,69.85c0.39,1.58-0.29,3.3-1.46,4.43c-0.41,0.4-0.88,0.73-1.39,1
							c0.09-0.25,0.17-0.51,0.24-0.76c0.44-1.6,0.46-3.45-0.51-4.8c-0.65-0.89-1.67-1.45-2.74-1.74c-1.06-0.3-2.17-0.35-3.27-0.4
							c0.88-0.29,1.77-1.15,1.68-1.99c-0.09-0.83-0.85-1.46-1.66-1.7c-0.8-0.24-1.66-0.18-2.49-0.21c-2.8-0.08-5.48-1.06-8.18-1.77
							s-5.62-1.17-8.26-0.23c-2.63,0.94-4.8,3.69-4.23,6.42c-4.02-1.08-7.43-0.49-10.04,1.31c-1.13,0.78-2.1,1.77-2.87,2.9
							c0.29-0.79,0.65-1.56,1.09-2.29c1.66-2.69,4.66-4.73,8.4-4.61c0.51-4.04,4.68-6.77,8.73-7.16c4.05-0.38,8.03,0.99,11.93,2.16
							c3.9,1.17,8.08,2.14,11.98,0.99c0.68-0.2,1.39-0.46,2.07-0.3c1.43,0.36,1.76,2.42,0.93,3.63c-0.83,1.21-2.31,1.75-3.24,2.19
							C222.341,67.12,223.721,68.34,224.091,69.85z"/>
					</g>
					<path style="fill:#F8906B;" d="M211.661,89.48c-0.35-0.65-0.71-1.32-1.28-1.82c-0.57-0.5-1.37-0.82-2.11-0.62
						c-0.84,0.22-1.36,1.02-1.71,1.78c-0.62,1.38-0.93,2.87-0.92,4.37c0.01,0.9,0.15,1.82,0.6,2.62c0.45,0.79,1.26,1.44,2.2,1.55
						s1.98-0.43,2.23-1.3"/>
				</g>
				<g>
					<g>
						<path style="fill:#F8906B;" d="M251.661,184.97c-0.85,1.14-1.81,2.15-2.88,3.07c-1.44,1.26-3.05,2.34-4.75,3.29
							c-2.37,1.34-4.91,2.43-7.41,3.46c-1.26,0.52-2.65,1.21-4.12,2c-5.04,2.69-10.93,6.49-15.27,8.28
							c-10.31,4.25-32.07,10.91-49.9,7.37c-6.19-0.62-11.49-3.75-14.93-8.32c-3.43-4.58-5.51-13.03-4.71-18.69
							c15.9-3.82,32.11-3.36,47.8-3.47c11.84-4.78,25-9.2,38.15-13.61c0.01-0.01,0.01-0.01,0.02-0.01c0.59-0.2,1.2-0.4,1.83-0.58
							c0.42-0.14,0.84-0.26,1.26-0.37c5.01-1.41,10.45-2.05,14.33,1.13C255.761,172.37,255.281,180.11,251.661,184.97z"/>
						<path style="fill:#DE6952;" d="M248.781,188.04c-1.44,1.26-3.05,2.34-4.75,3.29c-2.37,1.34-4.91,2.43-7.41,3.46
							c-1.26,0.52-2.65,1.21-4.12,2c0.99-8.95,1.2-18.11,1.14-28.43c0.01-0.01,0.01-0.01,0.02-0.01c0.59-0.2,1.2-0.4,1.83-0.58
							c4.16,1.91,7.48,5.5,9.65,9.57C246.931,180.66,248.031,184.31,248.781,188.04z"/>
					</g>
					<g>
						<path style="fill:#366E93;" d="M244.801,199.07c-2.56,1.45-17.2,5.21-27.19,8.32c-3.26,1.01-7.56,2.21-12.48,3.29
							c-11.14,2.43-25.43,4.22-37.81,1.76c-6.19-0.62-11.49-3.75-14.93-8.32c-3.43-4.58-5.51-13.03-4.71-18.69
							c15.9-3.82,32.11-3.36,47.8-3.47c2.94-1.19,5.89-2.34,8.75-3.42c0.24-0.1,0.47-0.18,0.71-0.27
							c16.53-6.23,30.76-10.6,31.8-10.89c2.38,2.28,4.28,5.11,5.5,8.16c0.97,2.42,1.74,6.77,2.21,11.21c0,0.01,0,0.01,0,0.02
							C244.971,191.49,245.121,196.32,244.801,199.07z"/>
						<path style="fill:#4D96B8;" d="M244.471,186.75c-2.06-6.25-5.67-10.04-10.38-14.62c-8.98,2.06-15.35,3.59-26.32,6.66
							c-0.59,4.63-3.21,9.02-7.03,11.85c2.67-3.38,3.91-7.83,3.51-12.1c0.24-0.1,0.47-0.18,0.71-0.27
							c16.53-6.23,30.76-10.6,31.8-10.89c2.38,2.28,4.28,5.11,5.5,8.16C243.221,177.96,244.001,182.31,244.471,186.75z"/>
						<path style="fill:#31638C;" d="M205.141,210.67c-11.14,2.43-25.43,4.22-37.81,1.76c-6.19-0.62-11.49-3.75-14.93-8.32
							c-1.84-2.46-3.29-6.02-4.12-9.68c-0.71-3.16-0.97-6.38-0.59-9.01c4.67-1.12,9.36-1.87,14.07-2.38
							c2.91-0.31,5.82-0.53,8.74-0.68c8.4-0.45,16.77-0.35,24.99-0.41c1.74-0.7,3.48-1.39,5.21-2.06c1.43-0.56,2.85-1.1,4.25-1.63
							c0.43,2,0.36,4.2-0.13,6.3c-0.93,3.95-3.36,7.53-6.68,9.86c2.51-4.39,4.05-9.35,4.52-14.39c-2.75,3.45-6.19,6.36-10.09,8.45
							c-1.86,1-3.87,1.87-5.18,3.52c-2.14,2.7-1.67,6.77,0.06,9.76C190.931,207.72,198.161,210.21,205.141,210.67z"/>
						<path style="fill:#1A3759;" d="M200.701,179.9c-14.53,11.67-33.95,16.99-52.41,14.54c-0.71-3.16-0.97-6.38-0.59-9.01
							c4.67-1.12,9.36-1.87,14.07-2.38c2.9-0.2,5.82-0.43,8.74-0.68c8.4-0.45,16.77-0.35,24.99-0.41
							C197.241,181.26,198.971,180.57,200.701,179.9z"/>
					</g>
				</g>
				<g>
					<path style="fill:#CBCBCB;" d="M240.031,147.3c-0.71,1.33-1.53,2.58-2.42,3.72c-2.62,3.37-5.79,5.85-8.52,6.93
						c-5.91-2.84-10.63-8.97-16.7-14.49c-0.32,0.71-0.69,1.5-1.07,2.33c-3.92,8.29-10.81,21.55-10.81,25.09
						c0,6.43,2.69,7.79,2.69,7.79s-13.13,9.56-25.97,12.14c-12.84,2.58-31.4,1.53-32.33-0.99c-1.5-14.07,2.28-29.39,8.9-44.61
						c4.02-9.24,9.09-18.44,14.67-27.3c0,0,11.32-4.62,21.5-5.94c1.92-0.25,4.05-0.43,6.28-0.53c9.53-0.44,20.67,0.4,23.22,2.41
						c5.74,3.3,17.01,16.68,23.32,21.08C243.181,139.42,241.991,143.67,240.031,147.3z"/>
					<path style="fill:#BDB9B9;" d="M237.621,151.02c-2.62,3.37-5.79,5.85-8.52,6.93c-5.91-2.84-10.63-8.97-16.7-14.49
						c-0.16,0.36-0.33,0.73-0.51,1.12c-0.09,0.19-0.18,0.39-0.27,0.59c-0.03,0.05-0.05,0.1-0.08,0.17
						c-0.07,0.14-0.14,0.28-0.21,0.43c0,0.01,0,0.01,0,0.02c-3.92,8.29-10.81,21.54-10.81,25.09c0,6.43,2.69,7.79,2.69,7.79
						s-13.13,9.56-25.97,12.14c-12.84,2.58-31.4,1.53-32.33-0.99c-1.5-14.07,2.28-29.39,8.9-44.61c-1.02,3.91-1.82,7.89-2.42,11.9
						c-0.51,3.42-0.84,6.99,0.27,10.28c2.18,6.45,9.3,9.91,16.03,10.98c6.57,1.04,13.39,0.46,19.7-1.68
						c6.04-2.05,3.16-3.48,0.42-4.26c-10.87-3.13-11.85-9.5-11.85-9.5s6.49,3.94,15.16,4.45c2.43,0.14,5.66-0.24,7.31-2.05
						c1.49-1.64,1.45-4.11,1.72-6.31c1.32-10.78,10.8-19.3,13.44-29.84c0.21,1.32,2.03,8.94,7.77,15.53
						c2.65,3.04,5.91,5.77,9.85,6.64C233.301,151.82,235.581,151.71,237.621,151.02z"/>
					<path style="fill:#9E9B9B;" d="M216.341,118.12c-2.21,8.07-3.52,16.51-3.98,24.87c-4.51-4.66-5.89-10.77-4.29-16.13
						c0.2,4.99,1.4,9.9,3.46,14.43C211.421,140.47,209.941,129.24,216.341,118.12z"/>
					<path style="fill:#E3E3E3;" d="M240.031,147.3c1.02-3.81,1.26-7.84,0.7-11.74c-7.45-6.2-14.14-12.45-20.63-18.9
						c-1.94,1.6-3.38,3.68-4.45,5.92c0.31-2.48,0.97-4.93,1.94-7.24c-7.11-2.13-14.21-3.43-21.34-3.89
						c9.53-0.44,20.67,0.4,23.22,2.41c5.74,3.3,17.01,16.68,23.32,21.08C243.181,139.42,241.991,143.67,240.031,147.3z"/>
				</g>
			</g>
			<g>
				<rect x="335.411" y="51.99" style="fill:#FC546A;" width="61.91" height="144.74"/>
				<g>
					<polygon style="fill:#DE3C5A;" points="397.321,196.73 397.321,51.99 411.271,56.35 411.271,194.55 					"/>
					<g>
						<rect x="339.331" y="57.31" style="fill:#A12842;" width="54.06" height="134.11"/>
						<rect x="358.081" y="57.31" style="fill:#8C1F40;" width="35.31" height="134.11"/>
					</g>
				</g>
				<g>
					<g>
						<g>
							<polyline style="fill:#AD9A9D;" points="345.091,74.22 346.421,68.8 361.031,70.91 367.471,103.19 350.411,103.3 							"/>
							<polygon style="fill:#CBCBCB;" points="348.601,102.24 342.751,70.01 346.401,68.8 352.571,102.24 							"/>
						</g>
						<g>
							<polyline style="fill:#4EA398;" points="351.641,64.71 366.521,67.18 375.201,102.35 355.991,102.92 350.341,66.89 							
								"/>
							<polygon style="fill:#69C2AC;" points="353.511,102.09 347.881,65.96 351.531,64.55 357.491,102.09 							"/>
						</g>
						<g>
							<polygon style="fill:#C99B69;" points="357.051,71.55 370.361,73.43 378.471,102.02 360.111,102.72 							"/>
							<polygon style="fill:#DBB681;" points="358.881,102.17 353.421,72.8 357.071,71.55 362.861,102.17 							"/>
						</g>
						<g>
							<polyline style="fill:#606DB3;" points="361.781,73.99 375.981,75.22 382.141,101.8 366.311,102.55 360.401,75.97 							"/>
							<polygon style="fill:#6E84D4;" points="363.601,102.2 358.361,75.58 361.791,73.99 367.571,102.2 							"/>
							<polygon style="fill:#E8FCF3;" points="365.031,76.39 374.031,77.02 375.051,82.25 366.031,81.79 							"/>
						</g>
					</g>
					<rect x="341.231" y="100.64" style="fill:#FC546A;" width="52.17" height="3.92"/>
				</g>
				<g>
					<g>
						<g>
							<polyline style="fill:#AD9A9D;" points="345.091,120.92 346.421,115 361.031,117.31 367.471,152.58 350.411,152.7 							"/>
							<polygon style="fill:#CBCBCB;" points="348.601,151.54 342.751,116.32 346.401,115 352.571,151.54 							"/>
						</g>
						<g>
							<polyline style="fill:#B04C7A;" points="351.641,116.38 366.521,118.7 375.201,151.78 355.991,152.32 350.341,118.43 							
								"/>
							<polygon style="fill:#D97EA1;" points="353.511,151.54 347.881,117.56 351.531,116.23 357.491,151.54 							"/>
						</g>
						<g>
							<polygon style="fill:#C99B69;" points="357.051,119.07 370.361,121.06 378.471,151.38 360.111,152.12 							"/>
							<polygon style="fill:#DBB681;" points="358.881,151.54 353.421,120.39 357.071,119.07 362.861,151.54 							"/>
						</g>
						<g>
							<polyline style="fill:#72C2A3;" points="361.781,119.07 375.981,120.48 382.141,151.09 366.311,151.95 360.401,121.34 
															"/>
							<polygon style="fill:#86DBB1;" points="363.601,151.54 358.141,120.39 361.791,119.07 367.571,151.54 							"/>
							<polygon style="fill:#E8FCF3;" points="365.031,121.82 374.031,122.56 375.051,128.58 366.031,128.05 							"/>
						</g>
					</g>
					<rect x="341.231" y="151" style="fill:#FC546A;" width="52.17" height="3.92"/>
				</g>
			</g>
		</g>
	</g>
	<g>
		<path style="fill:#F3E8E2;" d="M157.168,313.49c-18.28,4.46-36.71,9.47-52.72,18.83c-16.01,9.36-29.54,23.73-33.33,41.01
			c-4.99,22.75,8.02,46.49,27.3,61.16c19.28,14.67,43.85,21.74,68.16,26.61c31.75,6.37,64.24,9.55,96.71,9.48
			c28.08-0.06,56.47-2.62,82.93-11.38c26.46-8.76,51.01-24.15,66.52-46.01c20.17-28.44,22.89-66.93,6.89-97.6
			c-16-30.67-50.13-52.38-86.54-55.06c-30.53-2.24-60.55,7.97-88.07,20.54C217.498,293.64,190.368,305.38,157.168,313.49z"/>
		<g>
			<g>
				<defs>
					<path id="SVGID_00000006674641031622163990000014533258798169026182_" d="M98.668,241.93
						c-43.34,25.34-48.76,161.89-48.85,164.97c-0.29,9.86,22.75-5.32,27.68,3.63c5.06,9.19,12.37,17.47,20.92,23.97
						c19.28,14.67,43.85,21.74,68.16,26.61c31.75,6.37,64.24,9.55,96.71,9.48c28.08-0.06,56.47-2.62,82.93-11.38
						c26.46-8.76,51.01-24.15,66.52-46.01c41.55-58.58,68.95-32.89,25.2-119.77C415.238,248.36,114.678,232.56,98.668,241.93z"/>
				</defs>
				<clipPath id="SVGID_00000044893214288501818110000017785777564144506552_">
					<use xlink:href="#SVGID_00000006674641031622163990000014533258798169026182_"  style="overflow:visible;"/>
				</clipPath>
				<g style="clip-path:url(#SVGID_00000044893214288501818110000017785777564144506552_);">
					<g>
						<g>
							<g>
								<path style="fill:#46A1A3;" d="M357.338,421.19c-5.16-3.82-5.15-11.78-3.03-17.94s5.82-11.87,6.43-18.36
									c0.69-7.33-2.52-15.47,1.38-21.68c3.37-5.36,10.8-6.87,14.16-12.23c3.23-5.15,1.62-11.96,3.09-17.88
									c2.02-8.14,9.43-13.49,16.25-18.21c6.81-4.73,14.1-10.41,15.65-19.07c4.07,9.78,2.89,21.67-3.01,30.47
									c-2.83,4.22-6.74,7.94-7.86,12.92c-1.88,8.33,4.74,17.37,1.31,25.17c-2,4.54-6.84,7.07-9.56,11.21
									c-5.22,7.96-1.19,18.96-4.18,28.03c-1.92,5.83-6.65,10.36-11.96,13.26C370.678,419.78,364.758,421.27,357.338,421.19z"/>
								<g>
									<path style="fill:none;stroke:#32707D;stroke-linecap:round;stroke-miterlimit:10;" d="M404.178,314.86
										c-1.12,4.58-3.48,8.84-6.75,12.18c-3.06,3.13-6.99,5.59-8.93,9.55c-3.02,6.16-0.23,13.77-2.23,20.34
										c-2.55,8.37-12.04,12.85-15.09,21.05c-2.15,5.78-0.7,12.37-2.48,18.28c-1.4,4.62-4.63,8.39-7.22,12.44
										c-8.72,13.64-13,34.65-11.35,51.8"/>
									<path style="fill:none;stroke:#32707D;stroke-linecap:round;stroke-miterlimit:10;" d="M385.918,325.5
										c1.68,2.69,3.42,5.54,3.55,8.74"/>
									<path style="fill:none;stroke:#32707D;stroke-linecap:round;stroke-miterlimit:10;" d="M403.218,330.12
										c-3-0.35-6.03-0.36-9.04-0.02"/>
									<path style="fill:none;stroke:#32707D;stroke-linecap:round;stroke-miterlimit:10;" d="M378.148,351.92
										c2.86,2.73,4.75,6.5,5.23,10.48"/>
									<path style="fill:none;stroke:#32707D;stroke-linecap:round;stroke-miterlimit:10;" d="M386.158,358.47
										c4.55-1.21,9.31-1.56,13.98-1.03"/>
									<path style="fill:none;stroke:#32707D;stroke-linecap:round;stroke-miterlimit:10;" d="M361.938,372.7
										c3.69,2.08,6.05,5.91,8.26,9.57"/>
									<path style="fill:none;stroke:#32707D;stroke-linecap:round;stroke-miterlimit:10;" d="M371.118,378.14
										c5.03-2.2,10.53-3.27,15.99-3.1"/>
									<path style="fill:none;stroke:#32707D;stroke-linecap:round;stroke-miterlimit:10;" d="M356.058,401.1
										c2.02,2.05,3.77,4.36,5.2,6.87"/>
									<path style="fill:none;stroke:#32707D;stroke-linecap:round;stroke-miterlimit:10;" d="M363.878,405.19
										c4.19-0.24,8.42,0.03,12.54,0.82"/>
								</g>
							</g>
							<g>
								<path style="fill:#8FBFAE;" d="M362.628,428.68c-3.96-4.59-0.88-11.89,3.44-16.15c4.32-4.26,9.98-7.68,12.02-13.4
									c1.3-3.64,0.88-7.63,1.22-11.48s1.81-8.07,5.31-9.68c3.61-1.66,7.86,0.11,11.78-0.5c6.92-1.07,10.46-8.68,15.56-13.51
									c8.69-8.23,24.13-7.57,31.12,3.82c-4.77-1.48-9.87,2.04-12.24,6.47s-2.8,9.59-3.85,14.5s-3.04,10.06-7.31,12.68
									c-3.92,2.41-9.17,2.28-12.62,5.33c-3.96,3.52-3.9,9.67-6.12,14.49c-2.98,6.49-10.14,10.24-17.2,11.06
									S367.548,434.39,362.628,428.68z"/>
								<g>
									<path style="fill:none;stroke:#66948B;stroke-linecap:round;stroke-miterlimit:10;" d="M424.498,368.56
										c-3.7,1.12-6.88,3.93-8.49,7.51c-1.69,3.76-1.71,8.22-3.88,11.73c-4.99,8.06-18.25,6.83-23.3,14.85
										c-2.34,3.72-2.26,8.57-4.41,12.41c-3,5.35-9.4,7.39-14.32,10.96c-10.33,7.5-13.69,21.35-16.3,33.99"/>
									<path style="fill:none;stroke:#66948B;stroke-linecap:round;stroke-miterlimit:10;" d="M409.288,373.21
										c1.21,5.4,1.63,10.98,1.25,16.51"/>
									<path style="fill:none;stroke:#66948B;stroke-linecap:round;stroke-miterlimit:10;" d="M425.448,387.19
										c-4.12-0.88-8.41-0.96-12.57-0.25"/>
									<path style="fill:none;stroke:#66948B;stroke-linecap:round;stroke-miterlimit:10;" d="M385.798,381.33
										c2.07,6.39,3.31,13.07,3.67,19.8"/>
									<path style="fill:none;stroke:#66948B;stroke-linecap:round;stroke-miterlimit:10;" d="M393.068,398.63
										c5.56,0.75,11.02,2.21,16.22,4.33"/>
									<path style="fill:none;stroke:#66948B;stroke-linecap:round;stroke-miterlimit:10;" d="M395.848,424.41
										c-5.77-2-11.87-3.03-17.98-3.02"/>
									<path style="fill:none;stroke:#66948B;stroke-linecap:round;stroke-miterlimit:10;" d="M368.678,412.06
										c1.99,3.76,2.97,8.08,2.79,12.36c0,0.08,0,0.17,0.07,0.2c0.07,0.03,0.14-0.1,0.06-0.11"/>
								</g>
							</g>
						</g>
						<g>
							<g>
								<g>
									<path style="fill:#46A1A3;" d="M101.588,359.73c-1.33-4.05-5.52-6.68-9.79-7.38c-4.26-0.71-8.62,0.17-12.82,1.18
										c0.18,2.18,1.88,3.94,3.71,5.18C88.088,362.34,95.508,362.86,101.588,359.73z"/>
									<path style="fill:#46A1A3;" d="M107.458,363.34c-3.31-5.5-4.43-12.23-3.09-18.49c2.66,2.76,5.39,5.61,6.77,9.16
										C112.518,357.56,112.228,362.03,107.458,363.34z"/>
									<path style="fill:#46A1A3;" d="M116.118,370.08c-3.27-7.18-2.62-15.94,1.65-22.59c1.92,5.12,2.57,10.69,1.87,16.1
										C119.328,366.02,118.438,368.78,116.118,370.08z"/>
									<path style="fill:#46A1A3;" d="M124.358,378.88c-4.75-8.49-3.77-19.76,2.39-27.33
										C129.308,360.44,128.538,370.22,124.358,378.88z"/>
									<path style="fill:#46A1A3;" d="M130.708,386.9c-4.51-9.83-2.29-22.27,5.34-30.01
										C139.758,366.63,137.918,378.22,130.708,386.9z"/>
									<path style="fill:#46A1A3;" d="M136.168,396.16c-1.87-11.52,2.54-23.84,11.32-31.68c-0.23,5.99-0.47,12.03-1.94,17.85
										C144.078,388.16,141.258,393.81,136.168,396.16z"/>
									<path style="fill:#46A1A3;" d="M144.588,411.82c-2.51-6.77-1.75-14.5,1.42-21c3.17-6.49,8.61-11.78,14.92-15.44
										C161.988,388.99,156.138,402.96,144.588,411.82z"/>
									<path style="fill:#46A1A3;" d="M148.378,421.47c2.11-14.21,13.03-26.79,26.96-31.06
										C171.708,404.15,163.598,417.27,148.378,421.47z"/>
									<path style="fill:#46A1A3;" d="M152.768,434.14c1.52-6.59,5.41-12.62,10.83-16.78c5.41-4.16,12.31-6.41,19.17-6.27
										C177.388,421.78,167.638,430.26,152.768,434.14z"/>
									<path style="fill:#46A1A3;" d="M154.818,443.12c5.61-9.23,17.19-14.55,27.98-12.87
										C176.698,437.47,167.718,442.25,154.818,443.12z"/>
									<path style="fill:#46A1A3;" d="M157.178,449.72c7.08-5.07,17.19-5.67,24.84-1.47
										C176.478,451.8,169.558,453.19,157.178,449.72z"/>
									<path style="fill:#46A1A3;" d="M110.888,366.44c-7.36-2.99-16.17-2.27-22.93,1.89
										C94.748,370.51,102.238,370.49,110.888,366.44z"/>
									<path style="fill:#46A1A3;" d="M120.098,374.33c-8.31-2.69-17.93-1.08-24.86,4.18
										C102.898,381.93,112.408,380.95,120.098,374.33z"/>
									<path style="fill:#46A1A3;" d="M127.448,383c-8.77-3-19.2-0.51-25.61,6.1C110.528,392.24,120.848,390.44,127.448,383z"/>
									<path style="fill:#46A1A3;" d="M134.538,393.63c-9.81-3.8-21.89-0.91-28.83,6.89
										C114.628,404.9,126.318,402.96,134.538,393.63z"/>
									<path style="fill:#46A1A3;" d="M141.668,405.38c-9.82-2.02-20.37-0.35-29.05,4.6
										C122.098,415.11,134.728,413.93,141.668,405.38z"/>
									<path style="fill:#46A1A3;" d="M148.488,422.87c-4.13-3.64-9.8-5.21-15.34-5.39c-5.54-0.19-11.03,0.89-16.46,1.96
										C124.398,426.09,135.968,428.07,148.488,422.87z"/>
									<path style="fill:#46A1A3;" d="M154.158,436.84c-4.12-3.71-9.56-5.81-15.09-6.57c-5.53-0.76-11.17-0.25-16.66,0.73
										C129.988,438.98,142.828,441.59,154.158,436.84z"/>
									<path style="fill:#46A1A3;" d="M157.348,449.51c-3.7-2.88-8.33-4.42-12.99-5.12c-4.66-0.7-9.41-0.6-14.13-0.49
										C137.218,451.22,148.798,453.91,157.348,449.51z"/>
								</g>
								<path style="fill:none;stroke:#32707D;stroke-linecap:round;stroke-miterlimit:10;" d="M96.008,356.85
									c19.51,9.4,34.11,26.79,43.86,45.89c9.75,19.1,15.12,40.02,20.3,60.78"/>
							</g>
							<g>
								<g>
									<path style="fill:#8FBFAE;" d="M94.048,409.56c-5.73-6.56-15.93-8.88-24.01-5.46
										C75.938,409.73,84.988,411.94,94.048,409.56z"/>
									<path style="fill:#8FBFAE;" d="M100.388,412.69c-5.81-4.2-9.04-11.61-8.13-18.64c3.66,1.51,6.73,4.33,8.52,7.81
										C102.568,405.34,103.048,409.45,100.388,412.69z"/>
									<path style="fill:#8FBFAE;" d="M108.728,417.63c-5.42-6.71-6.24-16.68-2-24.17
										C113.188,399.66,115.058,410.02,108.728,417.63z"/>
									<path style="fill:#8FBFAE;" d="M117.028,423.45c-3.19-3.61-3.97-8.87-2.84-13.52c1.13-4.65,3.96-8.75,7.29-12.23
										c0.78,4.36,1.57,8.77,1.38,13.2C122.678,415.33,121.428,419.84,117.028,423.45z"/>
									<path style="fill:#8FBFAE;" d="M123.668,431c-2.53-9.46,1.28-20.25,9.22-26.13C135.168,413.75,132.578,423.68,123.668,431z
										"/>
									<path style="fill:#8FBFAE;" d="M129.478,437.51c-0.24-4.34,1.07-8.75,3.65-12.27c2.58-3.53,6.41-6.15,10.67-7.3
										C144.288,426.68,138.968,435.47,129.478,437.51z"/>
									<path style="fill:#8FBFAE;" d="M135.048,446.15c1.72-7.67,8.62-13.95,16.53-15.05c-0.36,3.98-2.13,7.82-4.94,10.7
										C143.828,444.69,140.008,446.6,135.048,446.15z"/>
									<path style="fill:#8FBFAE;" d="M138.638,454.75c1.67-3.3,4.47-6.04,7.83-7.67c3.36-1.63,7.28-2.14,10.95-1.43
										C153.498,451.15,147.098,454.86,138.638,454.75z"/>
									<path style="fill:#8FBFAE;" d="M102.788,414.65c-6.03-2.25-13.2-1.27-18.37,2.53
										C90.128,420.06,97.448,419.56,102.788,414.65z"/>
									<path style="fill:#8FBFAE;" d="M112.058,420.77c-3.41-1.69-7.57-1.45-11.12-0.07c-3.55,1.38-6.6,3.78-9.41,6.32
										C98.778,429.37,107.228,427.69,112.058,420.77z"/>
									<path style="fill:#8FBFAE;" d="M121.418,428.29c-8.17-1.75-17.16,0.83-23.1,6.61
										C105.508,436.81,113.588,435.06,121.418,428.29z"/>
									<path style="fill:#8FBFAE;" d="M130.008,437.96c-4.04-1.78-8.66-2.26-12.99-1.32c-4.32,0.93-8.33,3.26-11.24,6.54
										C112.958,446.56,122.248,444.9,130.008,437.96z"/>
									<path style="fill:#8FBFAE;" d="M136.248,449.62c-3.42-1.98-7.64-2.31-11.55-1.67c-3.92,0.64-7.62,2.19-11.25,3.77
										c3.34,2.63,7.69,3.97,11.95,3.7C129.658,455.14,133.788,453.24,136.248,449.62z"/>
								</g>
								<path style="fill:none;stroke:#32707D;stroke-linecap:round;stroke-miterlimit:10;" d="M85.438,406.87
									c27.63,7.61,50.16,30.93,56.49,58.46"/>
							</g>
						</g>
					</g>
					<g>
						<g>
							<g>
								<g>
									<rect x="302.298" y="409.12" style="fill:#062132;" width="18.87" height="61.48"/>
									<g>
										<path style="fill:#0B3A51;" d="M234.918,420.38l-1.14,0.99c0,0-0.53,2.84-0.1,4.05c0.43,1.21,75.55,16.75,87.57,14.36
											c12.02-2.4,46.18-23.75,48.3-27.23c2.12-3.48,10.14-78.1,6.99-84.66c-3.43-7.13-62.44-12.06-69.75-5.27l-0.94,74.54"/>
										<g>
											<path style="fill:#DE3C5A;" d="M370.838,377.71c-0.44,3.94-0.9,7.76-1.33,11.32c-0.84,7-1.6,13.01-2.1,16.87
												c-0.37,2.9-0.59,4.59-0.59,4.59s-0.06,0.04-0.17,0.11c-1.47,0.98-12.22,8.14-23.28,14.63
												c-7.46,4.36-15.04,8.42-20.02,10.04c-0.91,0.3-1.73,0.52-2.44,0.64c-10.91,1.88-87.53-11.76-87.01-14.45
												c0.08-0.4-0.73-2.97-0.17-4.39c0.11-0.31,0.29-0.56,0.56-0.73c13.71-8.61,59.02-22.18,59.02-22.18
												s4.05-65.31,10.81-71.44c5.25-4.76,64.57-1.53,69.86,5.44c0.15,0.19,0.25,0.38,0.31,0.57
												C375.588,332.76,373.238,356.75,370.838,377.71z"/>
											<path style="fill:#C22D57;" d="M350.528,393.94c0.09,1.93,1.18,3.97,2.78,5.47c5.25,0.31,10.34,2.76,14.09,6.49
												l-0.76,4.7c-4.18-2.5-8.92-4.04-13.77-4.43c-2.93-0.24-5.97-0.04-8.59,1.31c-2.6,1.34-4.66,4.03-4.61,6.95
												c0.08,3.84,3.53,7,3.69,10.79c-7.46,4.36-15.04,8.42-20.02,10.04c-11.2-0.43-22.64-4.92-34.05-6.18
												c-11.17-1.24-22.82,0.61-33.45-3.03c-2.3-0.79-4.8-2.17-5.28-4.56c-0.48-2.41,1.46-4.77,3.77-5.61
												c2.3-0.85,4.85-0.59,7.29-0.3c14.77-6.56,29.65-12.48,40.6-23.44c5.5-5.5,9.8-12.07,14.32-18.41
												c4.51-6.34,9.39-12.6,15.72-17.12c6.33-4.53,14.37-7.19,21.99-5.58c-2,6.72-1.91,14.11-0.25,21.14
												c0.79,3.36,2.26,7.01,5.45,8.35c2.3,0.97,4.99,0.45,7.29-0.57c1.43-0.64,2.77-1.46,4.13-2.26
												c-0.44,3.94-0.9,7.76-1.33,11.32c-1.2,0.79-2.48,1.45-3.82,1.97c-3.36,2.79-8.15,3.47-12.15,1.9
												c-0.65-0.25-1.33-0.58-2.03-0.46C350.808,392.54,350.178,393.33,350.528,393.94z"/>
											<path style="fill:#C22D57;" d="M370.838,377.71c-0.44,3.94-0.9,7.76-1.33,11.32c-0.84,7-1.6,13.01-2.1,16.87
												c-0.37,2.9-0.59,4.59-0.59,4.59s-0.06,0.04-0.17,0.11c-1.47,0.98-12.22,8.14-23.28,14.63
												c-7.46,4.36-15.04,8.42-20.02,10.04c-0.91,0.3-1.73,0.52-2.44,0.64c-10.91,1.88-87.53-11.76-87.01-14.45
												c0.08-0.4-0.73-2.97-0.17-4.39c28.09,7.62,58.64,10.62,85.7,16.36c15.89-7.19,31.35-16.25,44.84-27.64
												c4.22-24.88,6.51-49.9,6.57-74.94c1.18-0.74,2.24-1.64,3.14-2.69c0.15,0.19,0.25,0.38,0.31,0.57
												C375.588,332.76,373.238,356.75,370.838,377.71z"/>
										</g>
									</g>
								</g>
								<g>
									<path style="fill:#062132;" d="M325.088,340.25c-3.68-1-6.26-4.23-8.49-7.33c-2.25-3.13-4.5-6.55-4.62-10.4
										c-0.18-5.79,4.4-10.55,6.18-16.06c1.1-3.39,1.11-7.03,1.68-10.21c9.62-3.05,19.26-6.02,28.93-8.9
										c2.2-0.65,4.42-1.31,6.71-1.45c0.34-0.02,0.71-0.02,0.99,0.18c0.35,0.25,0.43,0.73,0.48,1.15
										c0.96,8.57,0.12,17.26,1.18,25.82c0.59,4.79,1.78,9.51,1.87,14.33c0.05,2.85-0.28,5.69-0.73,8.51
										c-0.44,2.78-1.02,5.62-2.59,7.95c-1.36,2.03-3.38,3.54-5.51,4.74c-4.68,2.64-10.28,3.95-15.52,2.75
										C330.398,350.14,325.678,346.14,325.088,340.25z"/>
									<g>
										<path style="fill:#F8906B;" d="M355.868,332.63c-6.71,7.4-15.45,12.93-25,15.75c-2.13,0.63-4.56,1.09-6.45-0.08
											c-1.36-0.84-2.14-2.36-2.77-3.85c-2.14-5.02-3.39-10.4-3.68-15.86c3.34-1.4,6.22-2.2,8.98-2.84
											c1.65-0.39,2.95-1.68,3.3-3.34c0.14-0.66,0.26-1.33,0.37-1.98c0.81-4.67,1-9.3,0.78-13.91c-0.01-0.16-0.01-0.32-0.02-0.48
											c0.68,0.07,1.35,0.13,2.01,0.19c4.8,0.45,8.81,0.73,12.83,1c-0.26,1.92-0.45,3.7-0.56,5.37
											c-0.27,4.25,0.01,7.93,1.21,12.21c0.39,1.42,1.28,2.65,2.47,3.49C351.568,329.87,353.918,331.65,355.868,332.63z"/>
										<path style="fill:#E87358;" d="M346.208,307.23c-0.26,1.92-0.45,3.7-0.56,5.37c-1.83,1.91-4.04,3.51-6.39,4.72
											c-2.73,1.41-5.65,2.38-8.63,3.11c0.81-4.67,1-9.3,0.78-13.91c0.66-0.11,1.31-0.2,1.98-0.29
											C338.178,306.68,342.198,306.95,346.208,307.23z"/>
									</g>
									<path style="fill:#F8906B;" d="M353.918,296.96c-1.23,11.93-14.8,20.78-24.77,19.75c-9.98-1.03-12.6-11.54-11.37-23.48
										c0.04-0.37,0.08-0.74,0.14-1.1c0.87-6.08,3.81-11.29,7.83-14.64c3.5-2.94,7.81-4.48,12.31-4.01
										C348.058,274.5,355.148,285.01,353.918,296.96z"/>
									<path style="fill:#F8906B;" d="M317.668,326.56c-7.72,0.49-17.31,10.65-26.28,15.77c-0.39,0.22-0.81,0.45-1.26,0.41
										c-0.92-0.07-11.62-15.91-17.21-30.42c-3.19,1.28-5.03,1.85-7.53,4.47c5.48,18.66,13.95,46.01,23.79,42.74
										c7.92-2.64,13.45-4.38,21.37-7.02c1.24-0.41,2.5-0.84,3.51-1.66c1.6-1.3,2.32-3.39,2.84-5.39
										C318.338,339.89,318.798,334.2,317.668,326.56z"/>
									<path style="fill:#062132;" d="M317.978,417.01c-12.26-2.62-22.91-5.06-33.31-8.29c-9.21-2.84-18.21-6.31-27.99-11.02
										c-4.66-6.63-6.4-19.37-0.14-24.9c2.26-4.62,18.56,2.7,31.75,6.78c2.14,0.66,4.19,1.23,6.09,1.66
										c4.08-1.13,7.37-3.3,10.64-5.45c12.84,4.01,27.44,5.31,40.31,5.64c2.08,5.17,2.42,11.6,2.77,17.21
										C349.458,420.36,332.978,420.21,317.978,417.01z"/>
									<path style="fill:#EB7450;" d="M286.528,407.02c-0.6,0.61-1.22,1.18-1.86,1.71c-9.21-2.84-18.21-6.31-27.99-11.02
										c-4.66-6.63-6.4-19.37-0.14-24.9c2.26-4.62,18.56,2.7,31.75,6.78c1.7,2.08,3.08,4.36,3.88,6.91
										C294.428,393.61,291.748,401.7,286.528,407.02z"/>
									<path style="fill:#F8906B;" d="M340.038,386.52c3.78,1.31,6.27,5.16,6.88,9.11c0.61,3.95-0.4,7.99-1.84,11.71
										c-1.16,2.98-2.74,6-5.48,7.64c-2.39,1.44-5.33,1.62-8.12,1.42c-1.66-0.12-3.38-0.37-4.79-1.26
										c-1.2-0.76-2.1-1.92-2.77-3.17c-2.43-4.49-2.14-10.16,0.14-14.73C326.338,392.68,330.418,389.17,340.038,386.52z"/>
									<path style="fill:#FCA47E;" d="M284.888,405.94c-7.67,0.64-15.4,0.5-23.04-0.42c-1.51-0.18-3.13-0.37-4.46,0.35
										c-1.36,0.73-2.11,2.29-2.28,3.82c-0.17,1.53,0.16,3.07,0.49,4.58c0.53,2.44,1.11,4.98,2.73,6.88
										c2.07,2.43,5.51,3.33,8.69,3.08s6.19-1.48,9.14-2.7c4.92-2.03,9.83-4.07,14.75-6.1
										C288.258,412.4,285.988,409.07,284.888,405.94z"/>
									<path style="fill:#FDBB56;" d="M351.598,328.91c-5.41,5.2-9.15,12.94-16.26,15.29c-2.32,0.77-4.87,1.18-7.19,0.44
										c-3.36-1.07-5.62-4.4-6.39-7.85c-0.78-3.46,0.61-6.73,1.68-10.49c-2.66,0.48-7.03-0.52-9.37,1.56
										c-5.03,4.48-8.51,29.86-10.46,43.71c-0.33,2.31-4.51,3.68-3.88,6.82c1.1,5.48,48.3,18.2,48.31,6.48
										c0.02-24.68,4.14-21.91,9.91-34.71c1.6-3.55,2.35-13.46,2.35-13.46S356.468,331.54,351.598,328.91z"/>
									<path style="fill:#E87358;" d="M346.188,303.17c-0.43-4.97-5.16-8.43-6.82-13.12c-0.79-2.22-0.85-4.62-0.68-6.99
										c-4.5,0.85-6.35,6.28-10.07,8.97c-3.07,2.22-7.55,2.2-10.69,0.11c0.87-6.08,3.81-11.29,7.83-14.64
										c2.65-1.52,5.65-2.46,8.68-2.89c2.26-0.32,4.62-0.37,6.77,0.39c4.5,1.6,7.15,6.5,7.56,11.25
										C349.198,291,347.788,295.7,346.188,303.17z"/>
									<path style="fill:#FCA47E;" d="M277.768,405.49c17.16-4.2,33.83-10.6,50.35-17.29c4.17-1.69,8.85-3.38,12.88-1.33
										c4.38,2.23,6.34,8.55,5.09,13.76s-5.11,9.26-9.47,11.57c-4.36,2.31-9.2,3.11-13.97,3.77c-13.44,1.84-27.25,2.67-40.24-0.71
										C280.978,412.26,279.538,409.25,277.768,405.49z"/>
									<path style="fill:#F8906B;" d="M251.198,384.36c-0.86-6.36,1.91-13,8.33-13.05c6.19-0.05,11.13,4.93,15.27,9.53
										c12.28,13.65,24.56,27.3,37.32,41.25c-1.97,2.16-3.34,1.92-5.89,4.99c-11.6-4.67-20.83-8.22-34.32-16.31
										C258.108,402.5,252.558,394.48,251.198,384.36z"/>
									<path style="fill:#F8906B;" d="M303.138,415.33c4.94-0.5,9.87-1,15.59-1.94c5.42-0.65,13.72-2.96,16.81-2.13
										c3.88,1.05,6.1,5.6,4.82,9.42c-1.42,4.24-4.44,9.76-10.36,11.14c-3.92,0.91-10.76,0.2-15.87-1.54
										c-2.55-0.87-11.35-3.9-13.32-6.08C298.838,422.02,303.678,420.7,303.138,415.33z"/>
									<g>
										<path style="fill:#062132;" d="M357.268,307.41c-0.78,8.23-1.18,16.83-0.62,25.08c-2.44-0.42-5.1,1.45-6.63,3.79
											c-1.52,2.34-2.48,5.11-4.53,7.02c-2.04,1.9-5.83,2.41-7.34,0.06c-0.53-0.8-0.67-1.8-0.7-2.76
											c-0.16-4.06,1.47-7.93,2.78-11.76c2.63-7.62,4.16-15.62,4.51-23.67c0.08-1.79,0.11-3.61-0.25-5.37
											c-0.37-1.84-1.15-3.56-1.76-5.33c-1.42-4.1-1.99-8.47-1.7-12.79c-2.81-0.84-5.22-0.13-7.11,1.29
											c-2.42,1.82-3.89,4.65-6.16,6.64c-2.5,2.19-5.94,3.24-9.22,2.83c-1.04,4.47-1.35,8.36-0.12,13.6
											c-3.01-0.99-3.76-2.89-5.29-4.9c-0.59-0.76-1.07-1.59-1.48-2.45c-0.68-1.41-1.15-2.93-1.47-4.45
											c-0.59-2.76-0.72-5.77,0.56-8.28c0.64-1.28,1.61-2.35,2.57-3.4c2.01-2.21,4.01-4.42,6.01-6.64
											c1.54-1.68,3.09-3.39,4.98-4.68c2.19-1.48,4.75-2.35,7.34-2.87c4.02-0.81,8.42-0.78,11.98,1.27
											c0.7,0.41,1.36,0.88,1.96,1.45c1.59,1.42,2.79,3.3,3.4,5.36c5.09,2.36,7.99,8.1,8.84,13.78
											C358.678,295.91,357.818,301.69,357.268,307.41z"/>
										<path style="fill:#104052;" d="M345.588,271.08c-1.59-0.72-3.42-1.05-5.17-1.12c-5.8-0.26-11.83,1.8-15.67,6.17
											c-2.2,2.5-3.63,5.66-6.15,7.83c-1.6,1.39-3.59,2.34-4.85,4.04c-0.74,1-1.18,2.2-1.49,3.39c-0.62,2.38-0.82,4.86-0.6,7.3
											c-0.68-1.41-1.15-2.93-1.47-4.45c-0.59-2.76-0.72-5.77,0.56-8.28c0.64-1.28,1.61-2.35,2.57-3.4
											c2.01-2.21,4.01-4.42,6.01-6.64c1.54-1.68,3.09-3.39,4.98-4.68c2.19-1.48,4.75-2.35,7.34-2.87
											c4.02-0.81,8.42-0.78,11.98,1.27C344.338,270.04,344.988,270.52,345.588,271.08z"/>
									</g>
									<path style="fill:#F8906B;" d="M356.998,333.83c2.72,1.01,4.75,5.29,5.56,8.07s0.89,5.72,0.97,8.62
										c0.19,7.25,0.39,14.49,0.47,21.22c9.46-4.06,17.7-10.91,23.51-19.74c1.74,1.74,5.57,2.97,7.68,5.09
										c-4.44,6.24-10.69,14.35-15.97,19.91c-6.91,7.28-19.5,14.44-24.12,12.69c-4-1.51-7.56-11.67-8-23.79
										c-0.25-7-1.34-12.29,0-19.3C348.368,339.97,352.158,332.03,356.998,333.83z"/>
									<path style="fill:#F8906B;" d="M387.668,355.13c-0.93-3.38,0.37-6.91,0.77-10.39c0.23-1.99,0.17-4.02-0.19-6
										c-0.1-0.55-0.22-1.11-0.09-1.65c0.13-0.54,0.62-1.04,1.17-0.98c0.62,0.07,0.96,0.75,1.16,1.34c0.87,2.57,1.28,5.3,1.42,7.9
										c3.12-1.44,5.86-3.68,7.91-6.44c1.74-2.34,3.89-5.71,4.89-5.66c0.91,0.04,1.13,1.18,0.34,3.14
										c-1.03,2.55-2.54,4.91-4.5,7.05c3.02-1.32,5.79-3.24,8.09-5.61c0.8-0.83,1.67-1.78,2.83-1.86c0.15-0.01,0.3,0,0.42,0.08
										c0.13,0.09,0.17,0.25,0.23,0.4c0.41,0.92-1.38,3.39-2.36,4.33c-1.91,1.83-3.75,3.76-5.88,5.53
										c2.66-1.59,5.03-3.54,7.7-5.13c1.34-0.8,1.87,0.5,1.74,0.99c-0.28,1.09-1.15,1.91-2.01,2.63
										c-1.77,1.48-3.98,3.11-5.98,4.25c2.01-1.13,4.33-2.55,6.34-3.68c0.75-0.42,1.62-1.09,2.25-0.5
										c1.17,1.11-0.95,2.68-2.26,3.63c-4.5,3.25-9.29,6.1-14.34,8.39C395.228,357.82,392.998,358.68,387.668,355.13z"/>
									<path style="fill:#F8906B;" d="M272.828,314.67c1.66-1.96,2.21-4.62,2.54-7.18s0.53-5.19,1.68-7.49
										c0.24-0.47,0.51-0.94,0.56-1.46c0.05-0.52-0.23-1.12-0.74-1.24c-0.44-0.1-0.88,0.2-1.19,0.52
										c-1.9,1.96-1.66,5.37-3.83,7.31c-1.3-0.6-2.37-1.59-3.34-2.64c-2.5-2.71-4.44-5.94-5.65-9.43c-0.14-0.4-0.3-0.84-0.67-1.05
										c-0.57-0.31-1.32,0.17-1.52,0.79c-0.2,0.62-0.02,1.29,0.18,1.92c0.81,2.58,1.89,5.08,3.39,7.42
										c-1.24-0.01-2.29-0.87-3.2-1.72c-1.47-1.37-2.85-2.83-4.14-4.38c-0.32-0.38-0.64-0.78-1.08-1
										c-0.44-0.23-1.03-0.25-1.39,0.1c-0.23,0.22-0.32,0.54-0.34,0.86c-0.07,1.12,0.69,2.1,1.42,2.96
										c1.32,1.57,2.64,3.14,3.89,4.92c-2.04-1.19-3.88-2.73-5.4-4.54c-0.29-0.35-0.62-0.73-1.07-0.77
										c-0.67-0.07-1.16,0.71-1.08,1.38c0.09,0.66,0.56,1.21,1,1.7c1.71,1.9,3.42,3.8,5.15,5.68c-1.57-1.68-3.27-3.23-5.09-4.65
										c-0.36-0.28-0.83-0.58-1.26-0.41c-0.78,0.3-0.41,1.48,0.09,2.15c2.21,2.94,4.58,5.75,7.1,8.43
										C261.568,315.74,267.088,321.45,272.828,314.67z"/>
									<g>
										<path style="fill:none;stroke:#062132;stroke-linecap:round;stroke-miterlimit:10;" d="M333.048,296.04
											c2.37-1.32,5.61-0.83,7.49,1.14"/>
										<path style="fill:none;stroke:#062132;stroke-linecap:round;stroke-miterlimit:10;" d="M318.938,294.59
											c2.01-0.96,4.62-0.49,6.17,1.11"/>
										<path style="fill:none;stroke:#C43F3B;stroke-linecap:round;stroke-miterlimit:10;" d="M326.668,300.08
											c-0.23,1.9-0.18,3.84,0.14,5.73"/>
										<path style="fill:#C43F3B;" d="M328.718,308.56c1.93-0.56,6.52-1.56,6.52-1.56s0.95,3.93-1.05,4.9
											C330.948,313.47,329.178,310.64,328.718,308.56z"/>
										<ellipse style="fill:#062132;" cx="334.418" cy="300.5" rx="1.03" ry="1.34"/>
										<ellipse style="fill:#062132;" cx="322.018" cy="299.6" rx="1.03" ry="1.34"/>
									</g>
								</g>
							</g>
							<g>
								<g>
									<g>
										<g>
											<rect x="178.148" y="376.24" style="fill:#1D4359;" width="6.61" height="90.56"/>
											<rect x="78.828" y="395.08" style="fill:#0B3A51;" width="6.61" height="71.72"/>
										</g>
										<g>
											<rect x="271.338" y="413.97" style="fill:#1D4359;" width="6.61" height="62.59"/>
											<rect x="370.658" y="395.13" style="fill:#1D4359;" width="6.61" height="56.62"/>
										</g>
									</g>
									<g>
										<polyline style="fill:#5E332B;" points="69.688,393.3 69.778,397.04 280.388,427.92 386.008,397.86 385.448,394.13 
																					"/>
										<polygon style="fill:#B5774E;" points="167.768,365.88 385.688,393.93 280.118,423.44 69.448,393.37 										"/>
									</g>
								</g>
								<g>
									<g>
										<g>
											<polygon style="fill:#15283D;" points="216.678,383.74 216.678,387.12 307.258,399.11 332.278,390.78 332.638,388.02 
																							"/>
											<polygon style="fill:#1D4359;" points="307.008,395.38 332.638,388.04 240.768,377.34 216.678,383.76 											"/>
										</g>
										<g>
											<polygon style="fill:#15283D;" points="226.498,383.22 242.338,378.76 322.188,388.61 306.468,393.06 											"/>
											<line style="fill:none;stroke:#1D4359;stroke-miterlimit:10;" x1="230.368" y1="384.45" x2="248.868" y2="379.03"/>
											<line style="fill:none;stroke:#1D4359;stroke-miterlimit:10;" x1="238.388" y1="385.44" x2="256.888" y2="380.02"/>
											<line style="fill:none;stroke:#1D4359;stroke-miterlimit:10;" x1="244.758" y1="386.39" x2="263.968" y2="380.73"/>
											<line style="fill:none;stroke:#1D4359;stroke-miterlimit:10;" x1="253.488" y1="387.16" x2="271.988" y2="381.74"/>
											<line style="fill:none;stroke:#1D4359;stroke-miterlimit:10;" x1="263.398" y1="388.39" x2="281.898" y2="382.97"/>
											<line style="fill:none;stroke:#1D4359;stroke-miterlimit:10;" x1="271.468" y1="389.87" x2="291.378" y2="383.98"/>
											<line style="fill:none;stroke:#1D4359;stroke-miterlimit:10;" x1="280.718" y1="390.94" x2="300.068" y2="385.37"/>
											<line style="fill:none;stroke:#1D4359;stroke-miterlimit:10;" x1="288.268" y1="391.34" x2="306.768" y2="385.91"/>
											<line style="fill:none;stroke:#1D4359;stroke-miterlimit:10;" x1="296.378" y1="392.75" x2="316.018" y2="386.86"/>
											<line style="fill:none;stroke:#1D4359;stroke-miterlimit:10;" x1="236.528" y1="379.56" x2="321.208" y2="389.94"/>
											<line style="fill:none;stroke:#1D4359;stroke-miterlimit:10;" x1="230.308" y1="381.2" x2="314.988" y2="391.58"/>
										</g>
									</g>
									<g>
										<g>
											<polygon style="fill:#16354D;" points="164.358,399.14 156.598,399.13 156.598,401.29 203.818,409.12 224.678,401.9 
												224.678,399.44 											"/>
											<polygon style="fill:#1D4359;" points="178.298,391.66 224.678,399.44 203.678,406.61 156.598,399.14 											"/>
										</g>
										<g>
											<path style="fill:#1B5A6E;" d="M257.178,308.67l-0.42,83.47c0,1.12-0.72,2.13-1.77,2.52l-1.9,0.69
												c-0.36,0.13-0.74,0.23-1.11,0.26c-0.25,0.05-0.53,0.06-0.79,0.04l-113.45-14.16l0.09-80.25c0-0.02,0-0.05,0.01-0.07
												c0.02-0.75,0.33-1.43,0.84-1.93c0.32-0.31,0.72-0.55,1.17-0.68l2.75-0.78c0.6-0.17,1.23-0.23,1.84-0.18l110.2,8.31
												C256.078,306.02,257.178,307.22,257.178,308.67z"/>
											<path style="fill:#1D4359;" d="M250.138,307.71c1.26,0.1,2.24,1.15,2.23,2.42l-0.4,85.47c-0.25,0.05-0.53,0.06-0.79,0.04
												l-113.45-14.16l0.1-80.32c0.02-0.75,0.33-1.43,0.84-1.93L250.138,307.71z"/>
										</g>
										<g>
											<path style="fill:#15283D;" d="M203.838,365.23c0.51,12.74,2.24,34.37,2.24,34.37l-4.82,2.54L203.838,365.23z"/>
											<polygon style="fill:#16354D;" points="201.368,402.1 176.908,398.44 181.388,362.47 203.838,365.21 											"/>
										</g>
									</g>
									<g>
										<g>
											<path style="fill:#E4E1F7;" d="M329.718,401.84l-2.92-16.49h19.35l-2.98,16.49
												C339.988,403.62,332.868,403.28,329.718,401.84z"/>
											<g>
												<ellipse style="fill:#E4E1F7;" cx="336.468" cy="385.35" rx="9.67" ry="2.49"/>
												<ellipse style="fill:#A6A5CF;" cx="336.548" cy="385.25" rx="8.49" ry="1.77"/>
											</g>
										</g>
										<path style="fill:#E4E1F7;" d="M341.648,390.21c1.14-1.39,2.34-2.83,3.95-3.64c1.61-0.81,3.77-0.83,5.05,0.44
											c0.79,0.79,1.12,1.93,1.28,3.04c0.24,1.66,0.15,3.4-0.54,4.93c-0.79,1.75-2.32,3.08-4.01,3.99
											c-1.69,0.91-3.55,1.44-5.4,1.96c-0.06-0.76-0.13-1.51-0.14-2.23c0.99-0.59,2.07-1,3.13-1.45
											c1.06-0.45,2.11-0.97,2.96-1.75s1.48-1.85,1.5-3s-0.67-2.34-1.77-2.69c-1.02-0.32-2.15,0.11-2.93,0.84
											C343.948,391.39,343.448,392.35,341.648,390.21z"/>
									</g>
								</g>
							</g>
						</g>
						<g>
							<g>
								<g>
									<rect x="113.898" y="259.61" style="fill:#E3FBFF;" width="101.2" height="66.83"/>
									<g>
										<g>
											<defs>
												
													<rect id="SVGID_00000149376556411859591430000011233084781799935911_" x="113.898" y="259.61" width="101.2" height="66.83"/>
											</defs>
											<clipPath id="SVGID_00000134953213704821621260000011447897912715905674_">
												<use xlink:href="#SVGID_00000149376556411859591430000011233084781799935911_"  style="overflow:visible;"/>
											</clipPath>
											<g style="clip-path:url(#SVGID_00000134953213704821621260000011447897912715905674_);">
												<g>
													<g>
														<path style="fill:#F5A68C;" d="M199.318,280.42c-1.73,4.71-3.66,9.36-5.79,13.92c-1.17,2.5-2.4,4.98-3.68,7.42
															c-0.59-0.69-1.32-1.33-2.12-1.94c-2.45-1.89-5.62-3.57-8.17-5.86c0.66-1.91,1.45-4.02,2.22-6.1
															c0.21-0.56,0.4-1.11,0.6-1.65c0.38-1.02,0.74-2.02,1.07-2.97c-7.03-0.98-12.42-2.14-19.45-3.11
															c0.18-2.41,0.36-4.83,0.54-7.24c10.79-1.28,21.85-0.35,32.28,2.7c1.09,0.32,2.28,0.76,2.76,1.78
															C200.028,278.32,199.678,279.43,199.318,280.42z"/>
														<path style="fill:#D06E5C;" d="M182.388,286.2c3.47,1.42,6.68,3.48,9.39,6.05c0.67,0.62,1.31,1.3,1.75,2.09
															c-1.17,2.5-2.4,4.98-3.68,7.42c-0.59-0.69-1.32-1.33-2.12-1.94c-2.56-3.35-4.58-7.23-5.94-11.96L182.388,286.2z"/>
													</g>
													<g>
														<path style="fill:#F5A68C;" d="M144.318,293.6c2.69,2.85,5.48,5.39,8.03,8.78c-2.24,2.38-8.24,8.26-11.07,10.48
															c-1.31-1.55-2.59-3.13-3.81-4.75c-1.55-2.03-3.02-4.1-4.43-6.22c-1.95-2.96-3.78-6-5.46-9.12
															c-1.16-2.16-2.29-4.65-1.52-6.98c0.75-2.27,3.04-3.63,5.2-4.69c7.87-3.9,16.29-6.69,24.94-8.28
															c0.21,2.47,0.8,4.91,1.74,7.21c-6.81,3.43-10.79,5.31-17.27,9.32c0.74,0.99,1.51,1.9,2.28,2.77
															C143.398,292.61,143.848,293.11,144.318,293.6z"/>
														<path style="fill:#D06E5C;" d="M138.318,307.49c-0.26,0.22-0.54,0.43-0.85,0.61c-1.55-2.03-3.02-4.1-4.43-6.22
															c2.43-0.44,4.66-1.93,6.3-3.81c1.53-1.76,2.63-3.83,3.61-5.96c0.45,0.51,0.91,1.01,1.38,1.49
															C144.508,299.27,142.218,304.27,138.318,307.49z"/>
													</g>
												</g>
												<g>
													<path style="fill:#F5A68C;" d="M179.038,302.49c0,2.96-0.02,5.98-0.88,8.81c-0.87,2.83-2.75,5.51-5.51,6.63
														c-3.53,1.42-7.65-0.01-10.7-2.28c-3.06-2.28-5.44-5.33-8.38-7.76c1.31-1.02,2.4-0.97,3.46-1.15
														c1.05-0.17,2.17-0.67,2.54-1.66c0.27-0.7,0.12-1.47-0.05-2.19c-0.18-0.82-0.36-1.63-0.55-2.45
														c-0.34-1.42-0.72-2.85-1.21-4.28c-0.13-0.38-0.27-0.77-0.42-1.15c0.66-0.28,1.32-0.54,1.98-0.79
														c3.24-1.25,6.58-2.22,10.03-2.64c0.66,3.17,1.53,6.29,2.62,9.36c0.12,0.34,0.25,0.68,0.44,0.99
														c0.08,0.16,0.19,0.3,0.31,0.43c0.77,0.81,2.05,0.85,3.14,0.61C176.928,302.71,177.968,302.25,179.038,302.49z"/>
													<path style="fill:#D06E5C;" d="M172.388,301.91c-0.65,0.53-1.4,0.96-2.2,1.23c-2.33,0.79-4.94,0.47-7.22-0.45
														c-1.42-0.58-2.75-1.37-4.01-2.25c-0.34-1.42-0.72-2.85-1.21-4.28c0.43-0.74,0.96-1.38,1.56-1.95
														c3.24-1.25,6.58-2.22,10.03-2.64c0.66,3.17,1.53,6.29,2.62,9.36C172.078,301.26,172.198,301.6,172.388,301.91z"/>
												</g>
												<g>
													<path style="fill:#B4AE9E;" d="M186.268,315.8c1.63,4.57,3.39,9.05,5.15,14.1c-6.84,1.45-12.74,2.89-18.43,3.72
														c-0.01,0-0.01,0-0.02,0c-7.01,1.02-13.73,1.12-21.53-0.82c-0.02-3.05-2.18-9.59-2.18-9.59s-7.25-6.31-11.96-10.97
														c-0.01-0.01-0.01-0.01-0.01-0.01c-1.99-1.96-3.52-3.63-3.88-4.4c2.88-3.54,8.09-11.61,9.19-16.89
														c7.06,6.02,9.14,8.93,15.08,13.27c0.2,0.15,0.4,0.29,0.61,0.44c1.2,0.86,5.69,8.41,9.46,7.52
														c5.24-1.23,5.32-6.63,5.96-10.05c0.21-0.32,0.43-0.64,0.62-0.95c3.48-5.4,4.81-9.67,7.68-16.37
														c6.62,6.25,8.55,7.38,11.94,14.24c-1.11,3.5-2.67,6.39-4.27,9.07c-1.33,2.21-2.69,4.27-3.86,6.39
														C185.958,314.94,186.118,315.37,186.268,315.8z"/>
													<g>
														<path style="fill:#A89F8C;" d="M172.978,333.62c-7.01,1.02-13.73,1.12-21.53-0.82c-0.02-3.05-2.18-9.59-2.18-9.59
															s-7.25-6.31-11.96-10.97c2.72,2.28,5.22,4.9,8.55,6.05c1.07,0.36,2.21,0.56,3.33,0.38c2.48-0.39,4.3-2.52,5.5-4.71
															c1.2-2.19,2.03-4.62,3.68-6.5c-2.2,4.62-4.42,9.36-4.87,14.46c-0.22,2.53,0.11,5.33,1.9,7.15
															c1.37,1.38,3.34,1.95,5.23,2.45C164.668,332.58,168.828,333.58,172.978,333.62z"/>
														<path style="fill:#A89F8C;" d="M185.808,314.5c0.15,0.43,0.3,0.87,0.46,1.3c-3.35-4.32-6.95-8.46-10.81-12.34
															c1.75,0.01,3.23,1.21,4.45,2.45c1.22,1.24,2.41,2.63,4.05,3.2c1.79,0.63,3.83,0.15,5.46-0.84
															c0.09-0.05,0.17-0.11,0.26-0.16C188.348,310.32,186.978,312.38,185.808,314.5z"/>
													</g>
													<g>
														<g>
															<defs>
																<path id="SVGID_00000127012824792730837590000012997756379118667698_" d="M186.268,315.8
																	c1.63,4.57,3.39,9.05,5.15,14.1c-6.84,1.45-12.74,2.89-18.43,3.72c-0.01,0-0.01,0-0.02,0
																	c-7.01,1.02-13.73,1.12-21.53-0.82c-0.02-3.05-2.18-9.59-2.18-9.59s-7.25-6.31-11.96-10.97
																	c-0.01-0.01-0.01-0.01-0.01-0.01c-1.99-1.96-3.52-3.63-3.88-4.4c2.88-3.54,8.09-11.61,9.19-16.89
																	c7.06,6.02,9.14,8.93,15.08,13.27c0.2,0.15,0.4,0.29,0.61,0.44c1.2,0.86,5.69,8.41,9.46,7.52
																	c5.24-1.23,5.32-6.63,5.96-10.05c0.21-0.32,0.43-0.64,0.62-0.95c3.48-5.4,4.81-9.67,7.68-16.37
																	c6.62,6.25,8.55,7.38,11.94,14.24c-1.11,3.5-2.67,6.39-4.27,9.07c-1.33,2.21-2.69,4.27-3.86,6.39
																	C185.958,314.94,186.118,315.37,186.268,315.8z"/>
															</defs>
															<clipPath id="SVGID_00000010285225108174978820000016684858236106304675_">
																<use xlink:href="#SVGID_00000127012824792730837590000012997756379118667698_"  style="overflow:visible;"/>
															</clipPath>
															<g style="clip-path:url(#SVGID_00000010285225108174978820000016684858236106304675_);">
																<path style="fill:none;stroke:#999381;stroke-miterlimit:10;" d="M157.668,308.98c6.46,3.19,14.88,1.88,20.05-3.13"
																	/>
																<path style="fill:none;stroke:#999381;stroke-miterlimit:10;" d="M153.928,317.78c9.56,0.88,21.09-1,30.26-3.82"/>
																<path style="fill:none;stroke:#999381;stroke-miterlimit:10;" d="M148.828,325.82c14.59,0.05,29.63,0.01,43.12-5.52
																	"/>
																<path style="fill:none;stroke:#999381;stroke-miterlimit:10;" d="M155.438,300.86c-0.13,4.55-0.59,9.25-2.75,13.26
																	c-2.17,4.01-6.42,7.21-10.99,6.91"/>
																<path style="fill:none;stroke:#999381;stroke-miterlimit:10;" d="M149.818,296.48c0.61,4.59-0.52,9.38-3.1,13.23
																	s-6.6,6.72-11.09,7.93"/>
																<path style="fill:none;stroke:#999381;stroke-miterlimit:10;" d="M145.688,290.67c-1.19,4.27-2.4,8.59-4.54,12.49
																	c-2.13,3.9-5.3,7.39-9.43,9.07"/>
																<path style="fill:none;stroke:#999381;stroke-miterlimit:10;" d="M174.498,298.79c1.86,0.38,3.52,1.49,4.85,2.84
																	s2.39,2.94,3.44,4.53c2.33,3.52,4.67,7.07,6.34,10.94"/>
																<path style="fill:none;stroke:#999381;stroke-miterlimit:10;" d="M176.068,292.99c8.26,2.9,14.69,10.42,16.25,18.98
																	"/>
																<path style="fill:none;stroke:#999381;stroke-miterlimit:10;" d="M178.748,287.29c7.71,4.27,13.32,12.1,14.89,20.73
																	"/>
															</g>
														</g>
														<path style="fill:#E0DDCE;" d="M174.328,301.17c0.05,2.68-0.35,5.38-1.18,7.93c-0.49,1.52-1.21,3.09-2.53,4.01
															c-1.8,1.27-4.36,1.01-6.27-0.1c-1.91-1.11-3.29-2.92-4.53-4.75c-0.86-1.27-1.69-2.62-2.14-4.06
															c0.2,0.15,0.4,0.29,0.61,0.44c1.2,0.86,5.69,8.41,9.46,7.52c5.24-1.23,5.32-6.63,5.96-10.05
															C173.918,301.8,174.138,301.48,174.328,301.17z"/>
													</g>
													<g>
														<path style="fill:#5D1010;" d="M171.228,272.21c3.66,4.3,4.54,10.74,2.18,15.85c-1.68-3.05-3.19-6.19-4.54-9.39
															c-0.4-0.95-0.79-1.93-0.83-2.96C167.998,274.68,168.388,273.58,171.228,272.21z"/>
														<g>
															<path style="fill:#D06E5C;" d="M170.598,286.12c0.63-0.91,1.38-1.75,2.34-2.3c0.96-0.55,2.15-0.78,3.19-0.41
																c1.04,0.37,1.87,1.4,1.81,2.5c-0.05,0.91-0.65,1.69-1.32,2.31c-1.27,1.18-2.88,2-4.55,2.34
																C171.528,289.35,170.978,288.15,170.598,286.12z"/>
															<g>
																<path style="fill:#F5A68C;" d="M166.748,299.71c-7.62,1.29-15.63-4.09-17.11-12.79
																	c-1.49-8.69,1.42-16.58,9.05-17.86c1.22-0.2,2.38-0.21,3.49-0.04c4.03,0.59,7.31,3.48,9.36,7.61
																	c0.93,1.86,1.61,3.97,1.99,6.24C175.018,291.57,174.378,298.43,166.748,299.71z"/>
																<path style="fill:#D06E5C;" d="M166.438,276.76c0.4,0.47,0.31,1.2-0.04,1.69c-0.35,0.5-0.91,0.8-1.47,1.06
																	c-3.47,1.58-7.57,1.73-11.13,0.39c-0.42,2.62-0.83,5.24-1.24,7.86c-3.41-6.34-2.45-10.61,0.07-13.83
																	c2.27-2.91,5.87-4.87,9.56-4.91c4.03,0.59,7.31,3.48,9.36,7.61C169.878,277.06,168.118,277.11,166.438,276.76z"/>
															</g>
															<g>
																<path style="fill:#5D1010;" d="M174.278,274.59c-0.03,0.02-0.07,0.06-0.1,0.08c-1.57,1.21-9.19,1.54-12.46,0.59
																	c0.3,0.74,5.06,1.76,2.97,2.9c-1.77,0.97-8.54,1.29-11.75,0.13c0.39,6.3,1.79,14.77-2.73,13.99
																	c-1.58-1.92-3.43-4.08-4.69-6.57c-1.26-2.5-1.89-5.41-1.23-8.13s2.8-5.17,5.56-5.72c0.38-1.09,0.92-2.07,1.61-2.94
																	c1.5-1.92,3.64-3.29,5.93-4.06c3.38-1.15,14.49-1.96,14.1,2.19c-0.07,0.72-0.75,1.38-1.45,1.38
																	c1.57,0.26,3.17,0.61,4.24,1.24C176.068,270.72,176.718,272.62,174.278,274.59z"/>
																<path style="fill:#802A22;" d="M174.278,274.59c-0.06-1.54-1.12-3.08-2.52-3.87c-1.85-1.06-4.1-1.15-6.24-1.19
																	c0.75,0,1.36-0.79,1.3-1.55c-0.07-0.77-0.67-1.42-1.37-1.74c-0.7-0.33-1.5-0.38-2.27-0.4
																	c-4.09-0.07-8.27,0.92-11.71,3.08c1.5-1.92,3.64-3.29,5.93-4.06c3.38-1.15,14.49-1.96,14.1,2.19
																	c-0.07,0.72-0.75,1.38-1.45,1.38c1.57,0.26,3.17,0.61,4.24,1.24C176.068,270.72,176.718,272.62,174.278,274.59z"/>
															</g>
															<g>
																<path style="fill:none;stroke:#B54145;stroke-linecap:round;stroke-miterlimit:10;" d="M166.968,287.27
																	c0.26,1.19,0.39,2.42,0.39,3.64"/>
																<g>
																	<path style="fill:none;stroke:#5D1010;stroke-linecap:round;stroke-miterlimit:10;" d="M156.528,284.8
																		c0.99-1.49,3.15-2.08,4.76-1.3"/>
																	<path style="fill:none;stroke:#5D1010;stroke-linecap:round;stroke-miterlimit:10;" d="M168.038,282.81
																		c0.52-0.75,1.37-1.27,2.28-1.4c0.91-0.13,1.87,0.13,2.59,0.71"/>
																	<path style="fill:none;stroke:#B54145;stroke-linecap:round;stroke-miterlimit:10;" d="M168.568,293.46
																		c-1.88,0.58-3.97,0.45-5.76-0.37"/>
																	<ellipse style="fill:#35424A;" cx="160.468" cy="288.32" rx="0.82" ry="1.02"/>
																	<ellipse style="fill:#35424A;" cx="170.718" cy="287.5" rx="0.82" ry="1.02"/>
																</g>
															</g>
															<path style="fill:#F5A68C;" d="M153.238,289.85c-1.87-1.06-4.52-0.41-5.67,1.39c-0.62,0.97-0.8,2.29-0.23,3.29
																c0.66,1.15,2.16,1.62,3.48,1.45c1.32-0.18,2.51-0.87,3.59-1.61C154.168,293.72,153.918,293.08,153.238,289.85z"/>
														</g>
													</g>
												</g>
											</g>
										</g>
										<g>
											<rect x="113.898" y="254.84" style="fill:#90A6D4;" width="101.2" height="7.51"/>
											<g>
												<ellipse style="fill:#E65563;" cx="209.008" cy="258.6" rx="2.27" ry="2.25"/>
												<ellipse style="fill:#E3BA7D;" cx="200.328" cy="258.6" rx="2.27" ry="2.25"/>
												<ellipse style="fill:#9EDEA7;" cx="191.258" cy="258.6" rx="2.27" ry="2.25"/>
											</g>
										</g>
									</g>
									<path style="fill:#E3FBFF;" d="M199.168,324.34c2.08,2.73,5.67,9.78,7.87,12.43c-0.12-3.34-1.74-11-1.88-14.36
										C203.458,322.99,201.648,323.28,199.168,324.34z"/>
								</g>
							</g>
						</g>
					</g>
				</g>
			</g>
		</g>
	</g>
</g>
</svg>
